<?xml version="1.0" encoding="UTF-8"?>
<svg version="1.1" xmlns="http://www.w3.org/2000/svg" width="512" height="512">
<path d="M0 0 C1.51161131 -0.00761181 1.51161131 -0.00761181 3.05376023 -0.0153774 C4.71919309 -0.01612404 4.71919309 -0.01612404 6.41827106 -0.01688576 C8.18386914 -0.02345914 8.18386914 -0.02345914 9.98513585 -0.03016531 C13.2579719 -0.04123463 16.53078095 -0.04777922 19.80363142 -0.05234647 C23.33138186 -0.05830261 26.85911467 -0.06991241 30.38685322 -0.08063698 C38.909252 -0.10516046 47.43165662 -0.11978792 55.95407984 -0.13269705 C58.36108491 -0.13640897 60.7680894 -0.1403822 63.17509389 -0.14444971 C78.12153757 -0.16968589 93.06798216 -0.19173949 108.01444244 -0.20417786 C111.47655141 -0.20710756 114.93866034 -0.21006923 118.40076923 -0.21308327 C119.26126191 -0.21382932 120.1217546 -0.21457537 121.00832281 -0.21534403 C134.94785426 -0.22799772 148.88725816 -0.26122102 162.82672998 -0.3028851 C177.13734148 -0.34530795 191.44788769 -0.36887328 205.75856191 -0.37409842 C213.79380053 -0.37751211 221.82883981 -0.38926225 229.86401653 -0.42220116 C236.70720052 -0.45020768 243.5501443 -0.46119843 250.39338114 -0.4500057 C253.8841194 -0.4448205 257.37435468 -0.44769565 260.8650198 -0.47247124 C264.65255969 -0.49509078 268.43883083 -0.48689903 272.22637653 -0.47098732 C273.3255115 -0.48486941 274.42464647 -0.49875149 275.55708855 -0.51305425 C282.3029183 -0.4431895 286.98929432 0.61602816 292.13978291 5.13701439 C296.56179688 10.19465088 298.27109877 14.23698671 298.2533083 20.99736595 C298.25323277 21.95805992 298.25315723 22.91875389 298.25307941 23.9085598 C298.24791813 24.93785606 298.24275684 25.96715233 298.23743916 27.02763939 C298.23531673 28.61726494 298.23531673 28.61726494 298.23315144 30.23900414 C298.22755672 33.62170301 298.21500516 37.00433554 298.20228291 40.38701439 C298.19726722 42.68128427 298.19270444 44.97555518 298.18861103 47.26982689 C298.17758902 52.89224533 298.16085611 58.51462512 298.13978291 64.13701439 C298.91579853 64.11083031 299.69181416 64.08464622 300.49134541 64.05766869 C304.0406149 63.95310712 307.58955942 63.88849885 311.13978291 63.82451439 C312.36052509 63.78261986 313.58126728 63.74072533 314.83900166 63.69756126 C322.2899033 63.5968734 327.44617125 64.08908928 333.13978291 69.13701439 C338.37317407 74.50812637 339.38920426 80.0192027 339.3942585 87.35257435 C339.39746498 88.05976369 339.40067146 88.76695303 339.4039751 89.49557236 C339.41227646 91.86526653 339.40635039 94.23470805 339.40047932 96.60440636 C339.40349993 98.32051448 339.40738896 100.03662126 339.41207188 101.75272566 C339.4223721 106.46873314 339.42016491 111.18466476 339.41589129 115.90067852 C339.41342776 120.98665242 339.42243356 126.07260788 339.42992878 131.15857506 C339.44268794 141.12238409 339.44446797 151.08616618 339.44212852 161.049982 C339.44034665 169.14713207 339.44209218 177.24427395 339.44635296 185.34142303 C339.44694815 186.49313931 339.44754334 187.64485559 339.44815656 188.83147236 C339.44936829 191.17105504 339.45058243 193.51063771 339.45179894 195.85022039 C339.46267906 217.79803366 339.46050968 239.74583158 339.45441409 261.69364572 C339.44924387 281.78005237 339.46050234 301.86641054 339.47951231 321.9528076 C339.49887541 342.57011219 339.50714944 363.18739384 339.50338906 383.80470759 C339.50147478 395.38275184 339.50398673 406.96075481 339.5181036 418.53879166 C339.52999886 428.39462206 339.53144311 438.25038579 339.51931343 448.10621708 C339.51341186 453.13590615 339.51236061 458.16547314 339.52431583 463.19515419 C339.5351309 467.79859491 339.53212362 472.40181097 339.51805415 477.00524098 C339.51539513 478.67139307 339.51781137 480.33756252 339.52579001 482.00369763 C339.53588102 484.26794107 339.5274876 486.53140127 339.51451302 488.79561329 C339.51456803 490.05341207 339.51462305 491.31121085 339.51467973 492.60712475 C338.79996881 499.33657808 335.88057662 504.28596966 331.13978291 509.13701439 C325.51936544 512.93213422 320.02706762 512.56031781 313.49380207 512.52469444 C312.31346785 512.53007998 311.13313363 512.53546552 309.91703171 512.54101425 C306.64893914 512.55283415 303.38117394 512.55122778 300.11307847 512.54384744 C296.58538569 512.53911531 293.05774748 512.551626 289.53007221 512.56186485 C282.6223053 512.57905722 275.71462932 512.57989198 268.80684657 512.57465195 C263.19205137 512.5706099 257.57728304 512.57205422 251.96248913 512.57740021 C250.76362103 512.57852284 250.76362103 512.57852284 249.54053337 512.57966815 C247.91684969 512.58119964 246.29316601 512.58273798 244.66948234 512.58428312 C229.44441705 512.5980097 214.21940316 512.59256933 198.99433904 512.58109791 C185.06726709 512.57116491 171.14032798 512.58410704 157.21327651 512.6080321 C142.91047197 512.63241742 128.60772932 512.6420324 114.3049044 512.63537937 C106.27593812 512.63188594 98.24707401 512.63412737 90.21812344 512.6516304 C83.38340433 512.66634529 76.54885936 512.66699723 69.7141437 512.64955949 C66.22764196 512.6410412 62.74145138 512.63891977 59.25496578 512.65421104 C55.47393108 512.66736105 51.69374522 512.65592492 47.91274738 512.63821983 C46.81274593 512.64782484 45.71274449 512.65742985 44.57940966 512.66732591 C37.5561623 512.59954582 32.94389387 511.74004279 27.68650347 506.76055425 C21.74303551 500.20788436 21.85984552 493.40466763 21.94447041 485.05107689 C21.9473003 483.99415642 21.9501302 482.93723595 21.95304585 481.84828758 C21.96420441 478.48607938 21.98930132 475.12414153 22.01478291 471.76201439 C22.02481828 469.476862 22.03394316 467.19170541 22.04212666 464.90654564 C22.06412959 459.31661028 22.09756418 453.72683166 22.13978291 448.13701439 C21.36376728 448.16319847 20.58775166 448.18938255 19.78822041 448.21636009 C16.23895091 448.32092166 12.69000639 448.38552993 9.13978291 448.44951439 C7.91904072 448.49140892 6.69829853 448.53330345 5.44056416 448.57646751 C-2.01033748 448.67715537 -7.16660544 448.1849395 -12.86021709 443.13701439 C-18.09271768 437.76681641 -19.10963706 432.25647194 -19.11469269 424.92424774 C-19.11950241 423.86391312 -19.11950241 423.86391312 -19.12440929 422.7821576 C-19.13271063 420.41347271 -19.12678458 418.04504058 -19.12091351 415.67635155 C-19.12393413 413.96095611 -19.12782316 412.24556202 -19.13250607 410.53017032 C-19.14280631 405.81609345 -19.14059909 401.10209246 -19.13632548 396.38800931 C-19.13386193 391.30406129 -19.1428678 386.22013171 -19.15036297 381.13619041 C-19.16312236 371.17605639 -19.16490211 361.21594931 -19.16256271 351.25580849 C-19.16078076 343.16105069 -19.16252653 335.06630108 -19.16678715 326.97154427 C-19.16738234 325.82011671 -19.16797753 324.66868916 -19.16859075 323.48236986 C-19.16980248 321.14335291 -19.17101662 318.80433597 -19.17223313 316.46531902 C-19.18311346 294.52224438 -19.18094385 272.57918509 -19.17484828 250.63610958 C-19.16967877 230.55684501 -19.1809346 210.47762895 -19.1999465 190.39837398 C-19.21931307 169.78671461 -19.22758297 149.17507821 -19.22382325 128.56340969 C-19.2219094 116.98924595 -19.22441665 105.4151235 -19.23853779 93.84096718 C-19.25043751 83.98772721 -19.25187231 74.13455394 -19.23974762 64.28131308 C-19.23384903 59.25352536 -19.23278659 54.22585973 -19.24475002 49.19808006 C-19.25557519 44.59520387 -19.25254563 39.99255222 -19.23848834 35.38968669 C-19.23583211 33.72486269 -19.2382369 32.06002129 -19.2462242 30.39521433 C-19.32740318 12.2123561 -19.32740318 12.2123561 -13.92271709 5.85967064 C-12.90177959 5.0378933 -12.90177959 5.0378933 -11.86021709 4.19951439 C-11.17959209 3.63361595 -10.49896709 3.06771751 -9.79771709 2.48467064 C-6.55418291 0.22858336 -3.83452061 0.0102436 0 0 Z M-5.86021709 17.13701439 C-6.6035029 20.47486125 -6.6035029 20.47486125 -6.48383617 24.20667171 C-6.49050418 24.91022926 -6.4971722 25.6137868 -6.50404227 26.33866426 C-6.52031942 28.70247604 -6.50088418 31.0646411 -6.48167706 33.42841148 C-6.48600492 35.13755004 -6.49251988 36.84668424 -6.50103712 38.55580705 C-6.51806598 43.25722557 -6.50382149 47.95811332 -6.48452234 52.65950406 C-6.46912386 57.72772758 -6.48248979 62.79588485 -6.49226665 67.86411095 C-6.50681019 77.79436504 -6.49454228 87.72441503 -6.47315341 97.6546498 C-6.44917169 109.21177705 -6.45085602 120.76885724 -6.45345932 132.32600384 C-6.45715145 152.94216766 -6.43630663 173.55823515 -6.40220928 194.1743679 C-6.36911239 214.19294736 -6.35495149 234.2114257 -6.36119366 254.23003197 C-6.36795312 276.01482708 -6.3655104 297.7995798 -6.34583426 319.58436865 C-6.34479477 320.73563259 -6.34375528 321.88689653 -6.3426843 323.07304726 C-6.34059336 325.38548955 -6.33848238 327.69793181 -6.33635113 330.01037406 C-6.32944717 338.07218908 -6.3287876 346.13399105 -6.33023357 354.19580841 C-6.33167122 364.01553176 -6.32202008 373.83517251 -6.29828721 383.65486843 C-6.28640301 388.66796731 -6.27931814 393.68095086 -6.28512478 398.69406319 C-6.29027857 403.27889944 -6.28167254 407.86349158 -6.26185018 412.44828599 C-6.25709182 414.11104327 -6.25743392 415.77382417 -6.26326054 417.43657804 C-6.27039385 419.68907878 -6.25923789 421.94075984 -6.24332714 424.1931982 C-6.24175594 425.44660269 -6.24018474 426.70000718 -6.23856592 427.99139363 C-5.83059087 431.3833291 -5.28048414 432.76773221 -2.86021709 435.13701439 C0.0308318 436.10069735 1.84794875 436.26400354 4.85220623 436.26844215 C5.82696325 436.2722833 6.80172026 436.27612444 7.80601537 436.28008199 C8.87944082 436.27921551 9.95286628 436.27834902 11.05881977 436.27745628 C12.19716632 436.28042741 13.33551288 436.28339853 14.50835478 436.28645968 C18.34302436 436.29516811 22.1776628 436.29665674 26.0123415 436.2981472 C28.75340682 436.30223489 31.49446883 436.30777746 34.23553181 436.31319237 C41.69619411 436.32677886 49.15685105 436.33280075 56.61752367 436.33720303 C61.27451758 436.33996461 65.93150942 436.34420178 70.58850193 436.3487072 C83.47845485 436.36089971 96.36840611 436.37119943 109.25836468 436.37458229 C110.08346504 436.37480186 110.90856541 436.37502142 111.75866882 436.37524764 C112.58575771 436.37546592 113.4128466 436.3756842 114.26499879 436.37590909 C115.9410336 436.37635256 117.61706841 436.37679912 119.29310322 436.37724876 C120.12447668 436.37747019 120.95585015 436.37769162 121.81241675 436.37791976 C135.28834756 436.3818691 148.76422435 436.39932733 162.24013428 436.42260829 C176.07047733 436.44630905 189.90079325 436.45878354 203.73115695 436.45995021 C211.4985232 436.46086763 219.26581904 436.4666368 227.03316593 436.48476982 C233.64619897 436.50015355 240.25913983 436.50530149 246.87218736 436.49703172 C250.24703321 436.49311914 253.62154204 436.49570881 256.99639034 436.50808907 C260.65334806 436.52072027 264.309825 436.51497956 267.96677876 436.50450706 C269.57022477 436.51659167 269.57022477 436.51659167 271.20606363 436.52892041 C278.18847988 436.54547401 278.18847988 436.54547401 284.13978291 433.13701439 C285.59431827 430.22794367 285.27075552 427.69048796 285.27679729 424.43929386 C285.27944912 423.73949745 285.28210095 423.03970104 285.28483313 422.31869867 C285.29255392 419.95015583 285.29308636 417.58166458 285.29368305 415.21310997 C285.29769584 413.50727895 285.30213375 411.80144888 285.30696261 410.09561998 C285.31895431 405.38954087 285.32458255 400.68347203 285.32914376 395.97738063 C285.33508995 390.90909961 285.34670215 385.84083093 285.35743427 380.77255821 C285.38197948 368.52410106 285.39658782 356.27563981 285.40949434 344.02716562 C285.4132045 340.569807 285.41717786 337.11244879 285.42124701 333.65509057 C285.44647991 312.2017715 285.46854079 290.74845183 285.48097515 269.29512119 C285.48390502 264.32371773 285.48686666 259.35231429 285.48988056 254.38091087 C285.49099964 252.52740293 285.49099964 252.52740293 285.49214132 250.63645039 C285.50480262 230.60661305 285.53803497 210.57686432 285.57968239 190.54706844 C285.62205656 169.99996489 285.64566489 149.45290677 285.65089571 128.90575963 C285.65431479 117.36232802 285.66612846 105.81903492 285.69899845 94.27564621 C285.72693799 84.44745449 285.73802513 74.61942967 285.72680299 64.79120132 C285.72160084 59.77384941 285.72460377 54.75684736 285.74926853 49.73954582 C285.77164529 45.14950047 285.77111194 40.56005862 285.75206466 35.97000352 C285.74924832 34.30645089 285.75495316 32.64285833 285.7698776 30.97937026 C285.78888968 28.72292472 285.77726223 26.46865219 285.75781536 24.21225834 C285.75917189 22.95760735 285.76052842 21.70295637 285.76192605 20.41028565 C284.95861697 16.18384908 283.53983336 14.70813761 280.13978291 12.13701439 C277.72386077 11.40303871 277.72386077 11.40303871 275.15002918 11.50780869 C274.16432328 11.49476995 273.17861737 11.48173121 272.16304159 11.46829736 C270.54996909 11.48502778 270.54996909 11.48502778 268.90430927 11.50209618 C267.75608676 11.49429622 266.60786426 11.48649627 265.42484713 11.47845995 C262.241629 11.46196745 259.05936425 11.46790108 255.87616992 11.48339105 C252.44185896 11.49470053 249.00767723 11.47724393 245.57339191 11.46349144 C238.84723925 11.44124999 232.12136543 11.44606411 225.3952018 11.46055464 C219.92909304 11.47184338 214.46306246 11.47337939 208.99694538 11.46793556 C208.21918994 11.4671694 207.44143449 11.46640323 206.6401107 11.46561385 C205.06015 11.46401523 203.48018933 11.46239417 201.90022868 11.46075089 C187.08245256 11.44649075 172.26483107 11.46289023 157.44708031 11.48975272 C144.73080087 11.51209179 132.01474964 11.50821173 119.29847431 11.48515892 C104.53398935 11.45840555 89.76963992 11.44786407 75.00513411 11.46322024 C73.4309629 11.464813 71.85679168 11.46638485 70.28262043 11.46793556 C69.1208157 11.46909263 69.1208157 11.46909263 67.93554017 11.47027307 C62.47554744 11.47459148 57.01564063 11.46730052 51.5556612 11.4555378 C44.90233536 11.44151936 38.24930449 11.44529861 31.59601247 11.47194152 C28.20084643 11.48508894 24.80617228 11.4902172 21.41100979 11.47369576 C17.7319306 11.46008541 14.05424621 11.47710455 10.37525654 11.50209618 C9.29987487 11.49094257 8.22449321 11.47978896 7.11652422 11.46829736 C5.63796536 11.48785547 5.63796536 11.48785547 4.12953663 11.50780869 C3.28053429 11.50862045 2.43153195 11.50943221 1.55680227 11.51026857 C-2.097712 12.45790332 -3.58573683 14.17275862 -5.86021709 17.13701439 Z M298.13978291 76.13701439 C298.13918582 76.8868821 298.13858873 77.63674982 298.13797355 78.4093408 C298.10208085 122.85104233 298.04544379 167.29267591 297.96186195 211.73431465 C297.95184448 217.07028916 297.94200035 222.40626397 297.93226337 227.742239 C297.92935131 229.3356861 297.92935131 229.3356861 297.92638043 230.96132404 C297.895358 248.16266773 297.87837909 265.36399808 297.86658868 282.56536447 C297.85417839 300.2151097 297.82667971 317.86478488 297.78516984 335.5144859 C297.760031 346.40560055 297.74666591 357.29659906 297.74835333 368.18774313 C297.74838308 375.65586612 297.73375894 383.12387079 297.70761862 390.59194767 C297.69296871 394.90087859 297.68477313 399.20956686 297.69398022 403.51851845 C297.70227244 407.466128 297.6920981 411.41325021 297.66744629 415.36078752 C297.6617666 416.78623029 297.66277208 418.21171932 297.67127046 419.63714807 C297.71414176 427.50412818 297.53487087 434.37569419 293.13978291 441.13701439 C289.17480009 445.00287264 285.34606492 447.38186464 279.75886631 447.39872742 C278.88353662 447.40619291 278.00820693 447.4136584 277.10635209 447.42135012 C275.67055995 447.41844802 275.67055995 447.41844802 274.20576191 447.41548729 C273.18553967 447.42127969 272.16531744 447.42707209 271.11417937 447.43304002 C267.68550765 447.45008525 264.25697018 447.45292044 260.82825947 447.45586205 C258.37449531 447.46515709 255.92073432 447.47532512 253.46697712 447.48630333 C248.17900924 447.50799236 242.89107679 447.52359103 237.60307789 447.53367043 C229.95752282 447.54825402 222.31203522 447.57378993 214.66651973 447.60200171 C202.26228026 447.64747552 189.85803109 447.68408789 177.45374775 447.71513939 C165.40392571 447.74532252 153.35412744 447.7796717 141.30433369 447.81963158 C140.19026718 447.8233239 140.19026718 447.8233239 139.05369428 447.82709081 C135.32774284 447.83946537 131.60179169 447.85192191 127.87584066 447.86441922 C96.96385364 447.96799583 66.05184045 448.05704873 35.13978291 448.13701439 C35.01290454 454.73877482 34.92539913 461.34022038 34.8651247 467.94292259 C34.83999568 470.18848482 34.80588675 472.43396539 34.76258564 474.67925072 C34.70186515 477.90886657 34.67355659 481.13740023 34.65150166 484.36748314 C34.62569523 485.36974434 34.5998888 486.37200554 34.57330036 487.40463829 C34.57153986 491.78938757 34.72913938 494.43323735 36.96808338 498.2704277 C41.71770494 501.06564216 45.95404579 500.82816014 51.37525654 500.7719326 C52.52347905 500.77973256 53.67170156 500.78753251 54.85471869 500.79556882 C58.03793681 500.81206133 61.22020156 500.8061277 64.40339589 500.79063773 C67.83770685 500.77932825 71.27188858 500.79678485 74.7061739 500.81053734 C81.43232657 500.83277878 88.15820038 500.82796467 94.88436401 500.81347413 C100.35047278 500.80218539 105.81650335 500.80064939 111.28262043 500.80609322 C112.4492536 500.80724246 112.4492536 500.80724246 113.63945511 500.80841493 C115.21941581 500.81001354 116.79937648 500.81163461 118.37933713 500.81327789 C133.19711325 500.82753803 148.01473474 500.81113854 162.8324855 500.78427605 C175.54876494 500.76193699 188.26481617 500.76581705 200.9810915 500.78886986 C215.74557647 500.81562322 230.50992589 500.82616471 245.27443171 500.81080854 C246.84860291 500.80921578 248.42277414 500.80764393 249.99694538 500.80609322 C250.77148187 500.80532184 251.54601835 500.80455046 252.34402564 500.80375571 C257.80401838 500.7994373 263.26392518 500.80672826 268.72390461 500.81849098 C275.37723045 500.83250942 282.03026132 500.82873016 288.68355334 500.80208726 C292.07871939 500.78893984 295.47339354 500.78381158 298.86855602 500.80033302 C302.54763521 500.81394337 306.2253196 500.79692423 309.90430927 500.7719326 C310.97969094 500.78308621 312.0550726 500.79423982 313.16304159 500.80573142 C314.64160045 500.78617331 314.64160045 500.78617331 316.15002918 500.76622009 C316.99903152 500.76540833 317.84803386 500.76459657 318.72276354 500.76376021 C322.37727781 499.81612546 323.86530264 498.10127016 326.13978291 495.13701439 C326.88306871 491.79916753 326.88306871 491.79916753 326.76340199 488.06735706 C326.77007 487.36379952 326.77673801 486.66024198 326.78360808 485.93536451 C326.79988523 483.57155273 326.78044999 481.20938768 326.76124287 478.84561729 C326.76557073 477.13647873 326.77208569 475.42734454 326.78060293 473.71822172 C326.79763179 469.01680321 326.7833873 464.31591546 326.76408815 459.61452472 C326.74868967 454.5463012 326.7620556 449.47814393 326.77183247 444.40991783 C326.786376 434.47966374 326.77410809 424.54961375 326.75271922 414.61937898 C326.7287375 403.06225173 326.73042183 391.50517154 326.73302513 379.94802494 C326.73671726 359.33186112 326.71587244 338.71579362 326.68177509 318.09966087 C326.6486782 298.08108142 326.6345173 278.06260307 326.64075947 258.04399681 C326.64751893 236.2592017 326.64507621 214.47444898 326.62540007 192.68966013 C326.62436058 191.53839619 326.6233211 190.38713225 326.62225011 189.20098152 C326.62015917 186.88853923 326.6180482 184.57609697 326.61591694 182.26365472 C326.60901298 174.2018397 326.60835341 166.14003772 326.60979939 158.07822037 C326.61123703 148.25849702 326.60158589 138.43885627 326.57785302 128.61916035 C326.56596882 123.60606147 326.55888395 118.59307792 326.56469059 113.57996559 C326.56984438 108.99512934 326.56123836 104.4105372 326.54141599 99.82574279 C326.53665763 98.16298551 326.53699973 96.50020461 326.54282635 94.83745074 C326.54995966 92.58494999 326.5388037 90.33326894 326.52289295 88.08083057 C326.52132175 86.82742608 326.51975055 85.5740216 326.51813173 84.28263515 C326.11015668 80.89069968 325.56004995 79.50629656 323.13978291 77.13701439 C320.13962379 76.13696135 318.16554535 76.02125854 315.03431416 76.03935814 C313.55994892 76.04419212 313.55994892 76.04419212 312.05579853 76.04912376 C310.5195583 76.06169212 310.5195583 76.06169212 308.95228291 76.07451439 C307.91652119 76.07902611 306.88075947 76.08353783 305.81361103 76.08818626 C303.25561024 76.09997429 300.69772557 76.11642924 298.13978291 76.13701439 Z " fill="#ffffff" transform="translate(137.8602170944214,-0.13701438903808594)"/>
<path d="M0 0 C3.94227135 0.56318162 4.57498209 1.33123863 7.0625 4.4375 C8.72396745 7.6994237 10.07439221 11.07172963 11.43359375 14.46875 C11.83780045 15.45564819 12.24200714 16.44254639 12.65846252 17.45935059 C13.94846762 20.61496063 15.22446952 23.77601521 16.5 26.9375 C17.35388346 29.03423488 18.20869177 31.13059337 19.06445312 33.2265625 C22.96097537 42.77544349 22.96097537 42.77544349 24.8453036 47.50280118 C25.63377591 49.40383273 26.46766743 51.28690418 27.3537249 53.14445949 C30.88928311 60.76933642 31.77655584 67.09896646 31.69068909 75.44366455 C31.69778347 76.69784014 31.70487786 77.95201574 31.71218723 79.24419665 C31.7309572 82.69076695 31.71896384 86.13661887 31.7014643 89.58316994 C31.68801123 93.31324473 31.70355536 97.04321984 31.71528625 100.77328491 C31.73360626 108.06564795 31.72518941 115.35774196 31.70719803 122.65009645 C31.69314156 128.5774878 31.68928576 134.5048064 31.6926403 140.43221283 C31.69311775 141.27753771 31.69359519 142.12286258 31.6940871 142.99380337 C31.69511348 144.71130113 31.69616884 146.42879887 31.69725286 148.14629659 C31.70580796 163.3111264 31.68918133 178.4758267 31.65942383 193.640625 C31.63056885 208.34575841 31.62351409 223.05070541 31.63891602 237.75585938 C31.6556837 253.7868522 31.65970819 269.81775665 31.64220566 285.84875178 C31.64036134 287.55851792 31.63852661 289.26828407 31.63670158 290.97805023 C31.63578949 291.81920242 31.6348774 292.66035462 31.63393768 293.52699627 C31.62833738 299.44750947 31.63163453 305.36797944 31.63824654 311.2884903 C31.64598416 318.50293477 31.63921112 325.7171959 31.6140715 332.93160346 C31.60158869 336.61065355 31.59541509 340.28941834 31.60661316 343.96847916 C31.61852989 347.95900672 31.59937319 351.94878657 31.5771637 355.93927002 C31.58952485 357.67798303 31.58952485 357.67798303 31.60213572 359.45182157 C31.52390744 367.05994174 30.59780952 372.86147674 25.02734375 378.49609375 C24.35832031 378.95113281 23.68929687 379.40617187 23 379.875 C22.32839844 380.34808594 21.65679687 380.82117188 20.96484375 381.30859375 C15.44144064 384.58634221 8.8247698 383.73675782 2.60375977 383.78759766 C1.12671083 383.804101 -0.35026009 383.83131704 -1.8269043 383.86962891 C-11.37198416 384.11560856 -18.1936987 383.82190532 -25.43969727 377.02929688 C-31.74308156 370.29432749 -31.24508525 362.06732391 -31.27894592 353.41757202 C-31.29123826 352.20854772 -31.3035306 350.99952342 -31.31619543 349.75386202 C-31.34790796 346.40921048 -31.37075054 343.06472019 -31.38951695 339.71998549 C-31.40722134 336.84730666 -31.4322094 333.97470909 -31.45720071 331.10208581 C-31.54655516 320.80515199 -31.60661391 310.50811168 -31.66015625 300.2109375 C-31.66443873 299.39583129 -31.66872121 298.58072509 -31.67313346 297.7409187 C-31.75789173 281.50836033 -31.82995658 265.27575798 -31.87894535 249.04305077 C-31.8899013 245.47564003 -31.90103151 241.9082299 -31.91235352 238.34082031 C-31.91515717 237.45430926 -31.91796082 236.56779821 -31.92084944 235.65442319 C-31.96769567 221.36567487 -32.07334957 207.077988 -32.20306296 192.78977709 C-32.33562189 178.06420029 -32.40971049 163.33916555 -32.43016809 148.61300147 C-32.44311759 140.36770034 -32.48085152 132.12422976 -32.58458138 123.87952805 C-33.37075045 59.27260475 -33.37075045 59.27260475 -17.78452873 30.9346199 C-14.77968174 25.24531468 -12.51694577 19.30489494 -10.1875 13.3125 C-9.42537461 11.43347261 -8.66045614 9.55557104 -7.890625 7.6796875 C-7.58286133 6.9254248 -7.27509766 6.17116211 -6.95800781 5.39404297 C-5.16562793 1.95764767 -3.88083446 0.57799662 0 0 Z M0.0625 23.4375 C-3.84303377 31.55488392 -7.38854611 39.79507222 -10.8125 48.125 C-11.21782959 49.10549316 -11.62315918 50.08598633 -12.04077148 51.09619141 C-12.41661377 52.01706543 -12.79245605 52.93793945 -13.1796875 53.88671875 C-13.5185498 54.71518311 -13.85741211 55.54364746 -14.20654297 56.3972168 C-15.04992369 58.39009107 -15.04992369 58.39009107 -14.9375 60.4375 C-4.7075 60.4375 5.5225 60.4375 16.0625 60.4375 C14.515625 56.56 12.96875 52.6825 11.375 48.6875 C10.66017456 46.8936084 10.66017456 46.8936084 9.9309082 45.06347656 C7.03998 37.82698321 4.08039348 30.62195488 1.0625 23.4375 C0.7325 23.4375 0.4025 23.4375 0.0625 23.4375 Z M-17.9375 72.4375 C-17.9375 157.2475 -17.9375 242.0575 -17.9375 329.4375 C-5.7275 329.4375 6.4825 329.4375 19.0625 329.4375 C19.0625 244.6275 19.0625 159.8175 19.0625 72.4375 C6.8525 72.4375 -5.3575 72.4375 -17.9375 72.4375 Z M-17.9375 341.4375 C-18.02 345.294375 -18.1025 349.15125 -18.1875 353.125 C-18.22391602 354.33244873 -18.26033203 355.53989746 -18.29785156 356.78393555 C-18.3975464 362.98905028 -18.3975464 362.98905028 -16.109375 368.64453125 C-11.35949827 372.56574244 -5.48545004 371.73296274 0.375 371.8125 C1.92477539 371.86857422 1.92477539 371.86857422 3.50585938 371.92578125 C10.07357492 372.05645702 10.07357492 372.05645702 15.73046875 369.1015625 C18.9113482 365.46779401 19.18709501 362.99243647 19.16015625 358.33203125 C19.15765869 357.44620361 19.15516113 356.56037598 19.15258789 355.64770508 C19.14348389 354.5264624 19.13437988 353.40521973 19.125 352.25 C19.104375 348.681875 19.08375 345.11375 19.0625 341.4375 C6.8525 341.4375 -5.3575 341.4375 -17.9375 341.4375 Z " fill="#ffffff" transform="translate(65.9375,105.5625)"/>
<path d="M0 0 C7.75332722 6.52653494 13.67621821 14.10540694 15.625 24.25 C16.56972735 37.27484763 14.64576012 47.62731997 6.23828125 57.953125 C-0.27795797 65.21092171 -9.42204964 69.73860903 -19.13671875 70.453125 C-31.17728517 70.64603127 -41.1805035 67.50669248 -50.3828125 59.50390625 C-57.29327617 52.30924602 -60.9712996 42.88372669 -61.44140625 32.96875 C-61.18984602 22.66957814 -58.06127978 12.45490775 -51 4.6875 C-36.72135733 -7.94360698 -16.22167545 -11.50607212 0 0 Z M-43.96875 17.15234375 C-48.12021768 23.3449497 -49.57014671 29.84455824 -48.375 37.25 C-45.28531964 45.98502225 -40.25883506 51.45114388 -32.375 56.25 C-25.48286111 58.54737963 -17.61103443 58.27624925 -11 55.25 C-4.43787742 51.44076787 0.10193664 46.58213616 2.625 39.375 C4.45306759 31.97189397 3.72178129 24.82222811 -0.015625 18.1328125 C-4.09894192 12.47718389 -9.65753614 8.15328143 -16.375 6.25 C-27.87749443 4.79791205 -36.7169233 8.00204355 -43.96875 17.15234375 Z " fill="#ffffff" transform="translate(214.375,241.75)"/>
<path d="M0 0 C7.4374421 5.62383765 14.03637609 13.94974456 15.74609375 23.3203125 C16.59655461 35.82626976 15.60323323 46.45874306 7.375 56.54296875 C-0.83849624 65.50493707 -10.00365238 69.64406218 -22.06640625 70.6328125 C-34.38697619 70.21558204 -44.31295429 65.14937072 -52.6875 56.2890625 C-59.21780493 48.08139746 -61.68293203 38.24953808 -61.19140625 27.8828125 C-59.74242206 16.34033614 -54.34295 7.01151664 -45.3125 -0.23828125 C-31.58336877 -9.58518473 -13.65137667 -9.1741646 0 0 Z M-41.25390625 13.3203125 C-46.73877317 20.7139591 -49.16541222 27.12712372 -48.25390625 36.3203125 C-46.25394886 44.4406214 -42.22763799 50.15179153 -35.1875 54.63671875 C-28.19382225 58.22739051 -20.56175268 58.60929373 -13.06640625 56.2578125 C-6.40564299 53.33090626 -0.83153993 48.26024245 2.0546875 41.54296875 C4.44931062 33.84499952 4.20848351 27.28139203 1.10546875 19.83203125 C-2.50416029 13.16251553 -8.15171628 8.8333951 -15.25390625 6.3203125 C-24.82149205 3.738583 -34.05093885 6.68493352 -41.25390625 13.3203125 Z " fill="#ffffff" transform="translate(214.25390625,142.6796875)"/>
<path d="M0 0 C9.30590361 9.77728108 11.92157932 19.4108089 11.66015625 32.5859375 C11.18670315 42.76168078 6.45157638 50.56315086 -0.609375 57.69921875 C-9.69502598 65.33503181 -18.99296279 67.46923394 -30.66796875 67.04296875 C-41.17058719 66.12698221 -49.22924149 61.47565674 -56.359375 53.8203125 C-63.40733912 45.0984569 -66.26364647 35.04118005 -65.390625 23.91015625 C-63.71573105 12.47578408 -58.58427187 3.9536881 -49.609375 -3.30078125 C-34.34559177 -13.56004539 -13.81540463 -12.18154689 0 0 Z M-47.609375 12.69921875 C-52.31596677 19.29416953 -53.45040864 25.74444224 -52.609375 33.69921875 C-50.38175368 41.26586725 -46.21493023 47.3006227 -39.484375 51.51171875 C-32.37160711 55.13875933 -25.53592668 55.62070572 -17.921875 53.26171875 C-10.22557066 50.02927093 -5.27932282 45.08302309 -2.046875 37.38671875 C0.04963691 30.58010609 0.02977433 24.59712713 -2.74609375 17.99609375 C-6.55126345 11.03211193 -11.37135229 6.72609917 -18.484375 3.32421875 C-29.98198404 1.02469694 -39.62630522 3.96968011 -47.609375 12.69921875 Z " fill="#ffffff" transform="translate(218.609375,344.30078125)"/>
<path d="M0 0 C7.45238993 5.29808562 13.6128058 12.95867559 16.13671875 21.85546875 C17.99493523 33.20386224 17.24007359 44.08560059 11.03125 53.98828125 C4.81674957 62.54921777 -2.99504146 68.28323026 -13.42578125 70.52734375 C-25.20999441 71.99156745 -35.30530093 70.58156805 -45.171875 63.578125 C-53.5839379 56.61598676 -58.74214386 48.15270031 -60.2421875 37.28125 C-60.9942949 25.99963899 -58.17716968 16.1765654 -51.05078125 7.33984375 C-38.00394465 -7.21239707 -16.72936739 -10.1561538 0 0 Z M-42.42578125 16.52734375 C-46.63869831 23.29626841 -48.24538744 29.57370057 -47.42578125 37.52734375 C-45.47079433 44.42006907 -41.52678155 50.92265437 -35.40234375 54.8125 C-28.80952807 58.23145088 -22.22098772 59.88894559 -14.89453125 57.80859375 C-6.86739213 54.81050564 -1.34904336 50.76727984 2.58984375 43.04296875 C5.64433485 35.23704706 4.9380695 28.52171169 1.7265625 20.8984375 C-1.56841518 14.11860207 -6.75834387 10.77373853 -13.42578125 7.52734375 C-24.30639143 4.81531106 -35.04358096 7.90823224 -42.42578125 16.52734375 Z " fill="#ffffff" transform="translate(213.42578125,42.47265625)"/>
<path d="M0 0 C1.23659866 -0.00708481 2.47319733 -0.01416962 3.74726868 -0.02146912 C5.11483801 -0.01917538 6.482407 -0.01666569 7.84997559 -0.01396179 C9.29233565 -0.01830967 10.73469341 -0.02349307 12.17704773 -0.02944946 C16.09226986 -0.04284132 20.00739546 -0.04341803 23.92263603 -0.04088616 C27.19067427 -0.03981677 30.45869296 -0.04469891 33.72672701 -0.04949158 C41.43530521 -0.060587 49.14383467 -0.06102371 56.85241699 -0.05497742 C64.80728321 -0.04893397 72.76197272 -0.0612579 80.7168088 -0.08254749 C87.54578165 -0.1001525 94.3746982 -0.10616667 101.20369291 -0.10290974 C105.28276086 -0.10109528 109.3617027 -0.10374938 113.44075012 -0.11762428 C117.27557372 -0.13018051 121.11012131 -0.12827967 124.94494057 -0.11521339 C126.35263982 -0.11284338 127.76035837 -0.11559752 129.16803551 -0.12383652 C131.08880506 -0.13426848 133.00965294 -0.12442049 134.93041992 -0.11352539 C136.54313908 -0.113777 136.54313908 -0.113777 138.18843842 -0.1140337 C141.35661538 0.31351725 142.74435073 0.97901643 144.96520996 3.26069641 C145.70440672 9.17427048 145.70440672 9.17427048 143.81227016 11.95521641 C141.16675016 13.82503822 139.19841225 13.64119545 135.9747467 13.64837646 C134.7226944 13.6582811 133.47064209 13.66818573 132.1806488 13.6783905 C130.79055689 13.67415223 129.40046591 13.66959435 128.01037598 13.66474915 C126.54845659 13.67045051 125.08654167 13.67741386 123.62463379 13.68554688 C119.65146512 13.70351986 115.67851679 13.70230215 111.70531964 13.69660449 C108.39010201 13.69351846 105.07492706 13.69959858 101.7597155 13.70564324 C93.93942443 13.71970057 86.11924256 13.71811729 78.2989502 13.70674133 C70.22760081 13.69525971 62.15658368 13.70933361 54.08527809 13.73613781 C47.15864931 13.75828049 40.23212493 13.76493541 33.30546325 13.7590614 C29.16710357 13.75568705 25.02895688 13.75813828 20.89062691 13.77531242 C16.99910564 13.79075676 13.10807723 13.78685448 9.21657562 13.76800728 C7.78791588 13.7643143 6.35921984 13.76745054 4.93059349 13.77789307 C2.98131842 13.79105398 1.0319165 13.77717774 -0.91734314 13.76190186 C-2.00853675 13.76169257 -3.09973036 13.76148329 -4.22399044 13.76126766 C-7.73010049 13.13686957 -8.93981995 12.10366552 -11.03479004 9.26069641 C-11.03479004 5.63569641 -11.03479004 5.63569641 -10.03479004 2.26069641 C-6.81524606 -0.02147907 -3.86286277 0.0073757 0 0 Z " fill="#ffffff" transform="translate(256.0347900390625,266.7393035888672)"/>
<path d="M0 0 C1.86545723 -0.01062721 1.86545723 -0.01062721 3.76860046 -0.02146912 C5.14924658 -0.01917522 6.52989235 -0.01666551 7.91053772 -0.01396179 C9.36260236 -0.01830835 10.81466471 -0.02349131 12.26672363 -0.02944946 C16.21299548 -0.04285693 20.15917165 -0.0434162 24.10546184 -0.04088616 C27.39830313 -0.03981762 30.69112498 -0.04469682 33.98396212 -0.04949158 C41.75149426 -0.06059283 49.51897804 -0.06102072 57.28651428 -0.05497742 C65.3032752 -0.04893617 73.31986068 -0.06125099 81.33659166 -0.08254749 C88.21649926 -0.10015287 95.09635097 -0.10616653 101.97628027 -0.10290974 C106.08666188 -0.10109502 110.19691834 -0.10375177 114.30727959 -0.11762428 C118.17245791 -0.13018079 122.03736238 -0.12827939 125.90253639 -0.11521339 C127.32152269 -0.11284328 128.74052813 -0.11559788 130.15949249 -0.12383652 C132.09564247 -0.13426782 134.03187016 -0.12442086 135.96801758 -0.11352539 C137.59374648 -0.113777 137.59374648 -0.113777 139.25231838 -0.1140337 C142.43259962 0.31232388 143.81812331 0.9718088 146.04750061 3.26069641 C146.54750061 6.76069641 146.54750061 6.76069641 146.04750061 10.26069641 C143.81982382 12.5461213 142.43069529 13.20850621 139.25511169 13.64101315 C138.17259125 13.64344304 137.0900708 13.64587294 135.9747467 13.64837646 C134.72973389 13.6582811 133.48472107 13.66818573 132.20198059 13.6783905 C130.82496544 13.67415252 129.44795125 13.66959467 128.07093811 13.66474915 C126.61872329 13.67045223 125.16651295 13.67741626 123.71430969 13.68554688 C119.77219037 13.70349908 115.83029338 13.70230624 111.88814545 13.69660449 C108.59773083 13.69351601 105.30735912 13.69960119 102.01695061 13.70564324 C94.25561331 13.71969324 86.49438607 13.71812288 78.73304749 13.70674133 C70.72359239 13.69525557 62.71447196 13.70934224 54.70506096 13.73613781 C47.82936683 13.75828002 40.95377787 13.76493566 34.07805061 13.7590614 C29.97100435 13.75568753 25.86417269 13.75813534 21.75715637 13.77531242 C17.89598922 13.79075643 14.03531879 13.78685489 10.17417145 13.76800728 C8.75679877 13.76431446 7.33938949 13.76745008 5.92205048 13.77789307 C3.98815593 13.7910548 2.05413352 13.77717723 0.12025452 13.76190186 C-0.96226593 13.76169257 -2.04478638 13.76148329 -3.16011047 13.76126766 C-6.65296094 13.13512976 -7.86583301 12.09434654 -9.95249939 9.26069641 C-9.88999939 5.63569641 -9.88999939 5.63569641 -8.95249939 2.26069641 C-5.46809525 -0.06223968 -4.11482475 0.00779663 0 0 Z " fill="#ffffff" transform="translate(254.95249938964844,244.7393035888672)"/>
<path d="M0 0 C1.8802462 -0.01062721 1.8802462 -0.01062721 3.79847717 -0.02146912 C5.19015539 -0.01917523 6.58183326 -0.01666553 7.97351074 -0.01396179 C9.43704997 -0.01830828 10.90058693 -0.02349121 12.36412048 -0.02944946 C16.34131573 -0.0428565 20.31841605 -0.04341633 24.2956295 -0.04088616 C27.61341829 -0.03981777 30.93118776 -0.04469636 34.24897242 -0.04949158 C42.07399593 -0.06059231 49.89897144 -0.06102077 57.72399902 -0.05497742 C65.80326337 -0.04893381 73.88235373 -0.06125711 81.96158838 -0.08254749 C88.89328451 -0.10014389 95.82492516 -0.10616802 102.75664282 -0.10290974 C106.89885023 -0.10109386 111.04093349 -0.10376346 115.18312073 -0.11762428 C119.07702249 -0.1301665 122.97065223 -0.12829305 126.86454964 -0.11521339 C128.29524386 -0.11284028 129.72595703 -0.1156085 131.15662956 -0.12383652 C133.10626671 -0.13424249 135.05598084 -0.12443514 137.00561523 -0.11352539 C138.09773064 -0.11369313 139.18984604 -0.11386087 140.31505585 -0.1140337 C143.00280762 0.26069641 143.00280762 0.26069641 144.84638214 1.56533527 C146.83732067 4.48412241 146.4876781 6.86660306 146.00280762 10.26069641 C142.33448614 13.15274998 139.49086127 13.63789021 134.89245605 13.64837646 C133.66434204 13.6582811 132.43622803 13.66818573 131.17089844 13.6783905 C129.81799216 13.6741528 128.46508685 13.66959498 127.11218262 13.66474915 C125.68114692 13.6704541 124.25011578 13.67741885 122.8190918 13.68554688 C118.9389449 13.70347829 115.05902414 13.70231017 111.17884827 13.69660449 C107.93818408 13.69351305 104.69756336 13.69960448 101.45690536 13.70564324 C93.81201305 13.71968636 86.16723248 13.71812855 78.52233887 13.70674133 C70.63728096 13.69525589 62.75256301 13.70934326 54.8675499 13.73613781 C48.09457886 13.75829112 41.32171457 13.76493317 34.54870987 13.7590614 C30.50480252 13.75569024 26.46111318 13.75811746 22.41723633 13.77531242 C18.61514618 13.79077412 14.81356005 13.78683519 11.01148987 13.76800728 C9.61711219 13.7643194 8.22269722 13.76743577 6.82835388 13.77789307 C4.92332722 13.7910885 3.01817046 13.77715626 1.11315918 13.76190186 C0.04760803 13.76169257 -1.01794312 13.76148329 -2.11578369 13.76126766 C-5.7518727 13.12958996 -7.45075847 11.89986281 -9.99719238 9.26069641 C-9.99719238 5.63569641 -9.99719238 5.63569641 -8.99719238 2.26069641 C-5.50308013 -0.06871175 -4.1290565 0.00776146 0 0 Z " fill="#ffffff" transform="translate(254.9971923828125,167.7393035888672)"/>
<path d="M0 0 C1.26053696 -0.00563965 2.52107391 -0.0112793 3.81980896 -0.01708984 C5.22456417 -0.01320086 6.62931881 -0.0091045 8.03407288 -0.00482178 C9.50731581 -0.0075306 10.98055739 -0.01109092 12.45379639 -0.01544189 C16.46204961 -0.02458195 20.47020022 -0.02101482 24.47845531 -0.01468372 C28.66777883 -0.00963111 32.85709338 -0.0143132 37.04641724 -0.01745605 C44.08365969 -0.02109827 51.12086022 -0.01629035 58.15809631 -0.0067749 C66.29922217 0.00410592 74.44024783 0.00058782 82.58137125 -0.01042771 C89.56399963 -0.01949838 96.54659781 -0.02078682 103.52923018 -0.01555037 C107.70272022 -0.01242891 111.87616315 -0.01202606 116.04965019 -0.01862335 C119.97386307 -0.02439284 123.89794659 -0.02040725 127.82214546 -0.00883484 C129.26412364 -0.00618594 130.70611266 -0.00695727 132.14808655 -0.01136017 C134.11312476 -0.01680781 136.07818671 -0.00877191 138.04321289 0 C139.14400146 0.00075405 140.24479002 0.0015081 141.37893581 0.002285 C144.08509827 0.25396729 144.08509827 0.25396729 147.08509827 2.25396729 C147.44837952 4.12896729 147.44837952 4.12896729 147.39759827 6.25396729 C147.39373108 6.95521729 147.38986389 7.65646729 147.38587952 8.37896729 C147.08509827 10.25396729 147.08509827 10.25396729 145.08509827 12.25396729 C142.48915958 12.50844288 142.48915958 12.50844288 139.13223267 12.5146637 C137.86328156 12.5217485 136.59433044 12.52883331 135.28692627 12.53613281 C133.87272609 12.53383878 132.45852624 12.53132905 131.04432678 12.52862549 C129.5612309 12.53297066 128.07813727 12.53815315 126.595047 12.54411316 C122.55994355 12.55753566 118.52493357 12.55807822 114.48981214 12.55554986 C111.12485239 12.55448231 107.75991172 12.55935798 104.39495605 12.56415528 C96.45824098 12.57526178 88.52157322 12.57568151 80.58485413 12.56964111 C72.38916394 12.56359965 64.19364537 12.57591404 55.99798447 12.59721118 C48.96864492 12.61480785 41.93936008 12.6208316 34.90999931 12.61757344 C30.70853287 12.61575728 26.50718883 12.61842965 22.30574226 12.63228798 C18.35522155 12.6448303 14.40496894 12.64295661 10.45445251 12.62987709 C9.0027959 12.62750384 7.55112063 12.63027267 6.0994854 12.63850021 C4.12133048 12.64890527 2.1430997 12.63909937 0.16494751 12.62818909 C-0.9432154 12.62835683 -2.05137831 12.62852457 -3.19312191 12.6286974 C-5.91490173 12.25396729 -5.91490173 12.25396729 -7.80661106 10.95323467 C-8.91490173 9.25396729 -8.91490173 9.25396729 -8.72740173 5.69146729 C-7.37241446 -0.04117119 -5.43988781 0.00372765 0 0 Z " fill="#ffffff" transform="translate(253.91490173339844,68.74603271484375)"/>
<path d="M0 0 C1.27177094 -0.00701431 2.54354187 -0.01402863 3.85385132 -0.02125549 C5.26600804 -0.01382758 6.6781632 -0.00609642 8.09031677 0.00190735 C9.57518265 -0.00052019 11.06004689 -0.00423914 12.54490662 -0.00915527 C16.57994558 -0.01857235 20.61474233 -0.00913253 24.64976239 0.00417686 C28.86757276 0.01547823 33.08537098 0.01138492 37.30319214 0.00942993 C44.38575711 0.00854664 51.46822642 0.01963556 58.55076599 0.03804016 C66.74703743 0.05921651 74.9431688 0.06271615 83.13946205 0.0564782 C91.01556984 0.05079016 98.89162815 0.05642306 106.76772881 0.06765175 C110.12376251 0.07230434 113.47976602 0.07316876 116.83580208 0.0710659 C120.78465922 0.06918682 124.7333731 0.0772574 128.68219757 0.0931263 C130.13426814 0.09738057 131.58635321 0.09821206 133.03842735 0.0954361 C135.01471989 0.09223026 136.99102083 0.10249151 138.96728516 0.11352539 C140.62896398 0.1166047 140.62896398 0.1166047 142.32421207 0.11974621 C144.92015076 0.3742218 144.92015076 0.3742218 146.92015076 2.3742218 C147.22093201 4.2492218 147.22093201 4.2492218 147.23265076 6.3742218 C147.24940857 7.0754718 147.26616638 7.7767218 147.28343201 8.4992218 C147.16354919 9.1179718 147.04366638 9.7367218 146.92015076 10.3742218 C143.41948295 12.70800034 142.02427817 12.62902913 137.88499451 12.64164734 C135.99212708 12.65444229 135.99212708 12.65444229 134.0610199 12.66749573 C132.65989673 12.66679669 131.25877365 12.66587362 129.85765076 12.66474915 C128.38425861 12.67073245 126.91086961 12.67753754 125.43748474 12.68510437 C121.4334397 12.70278915 117.4294801 12.70746071 113.42539978 12.70873594 C110.08524164 12.71063366 106.74510347 12.71798949 103.404953 12.72508013 C95.52719615 12.74137017 87.64948502 12.74624843 79.77171326 12.74482727 C71.63787457 12.74362481 63.50430079 12.76474582 55.37052917 12.7963146 C48.39212288 12.82243672 41.41380335 12.83319632 34.43534851 12.83191645 C30.26514884 12.83140573 26.09518466 12.83714959 21.92503357 12.85827255 C18.00481048 12.87758748 14.08504923 12.87782626 10.16481018 12.86323929 C8.7244347 12.86114183 7.28403081 12.86590765 5.84370422 12.87796021 C3.88096285 12.89332336 1.91806514 12.88174621 -0.04469299 12.86869812 C-1.69392761 12.87033242 -1.69392761 12.87033242 -3.3764801 12.87199974 C-6.07984924 12.3742218 -6.07984924 12.3742218 -7.93360901 10.50347328 C-9.35468701 7.86368422 -9.53481548 6.33150233 -9.07984924 3.3742218 C-6.58804249 -0.17560697 -4.14885548 -0.00062801 0 0 Z " fill="#ffffff" transform="translate(254.07984924316406,46.62577819824219)"/>
<path d="M0 0 C1.27177094 -0.00701431 2.54354187 -0.01402863 3.85385132 -0.02125549 C5.26600804 -0.01382758 6.6781632 -0.00609642 8.09031677 0.00190735 C9.57518265 -0.00052019 11.06004689 -0.00423914 12.54490662 -0.00915527 C16.57994558 -0.01857235 20.61474233 -0.00913253 24.64976239 0.00417686 C28.86757276 0.01547823 33.08537098 0.01138492 37.30319214 0.00942993 C44.38575711 0.00854664 51.46822642 0.01963556 58.55076599 0.03804016 C66.74703743 0.05921651 74.9431688 0.06271615 83.13946205 0.0564782 C91.01556984 0.05079016 98.89162815 0.05642306 106.76772881 0.06765175 C110.12376251 0.07230434 113.47976602 0.07316876 116.83580208 0.0710659 C120.78465922 0.06918682 124.7333731 0.0772574 128.68219757 0.0931263 C130.13426814 0.09738057 131.58635321 0.09821206 133.03842735 0.0954361 C135.01471989 0.09223026 136.99102083 0.10249151 138.96728516 0.11352539 C140.62896398 0.1166047 140.62896398 0.1166047 142.32421207 0.11974621 C144.92015076 0.3742218 144.92015076 0.3742218 146.92015076 2.3742218 C147.48074258 8.54073188 147.48074258 8.54073188 145.77781677 11.07264805 C143.11364773 12.93929817 141.12241921 12.75474708 137.88499451 12.76190186 C135.99212708 12.7767588 135.99212708 12.7767588 134.0610199 12.79191589 C132.65989588 12.78767764 131.2587728 12.78311976 129.85765076 12.77827454 C128.38425681 12.78397581 126.91086728 12.79093913 125.43748474 12.79907227 C121.43339296 12.81704467 117.42951982 12.81582783 113.42539978 12.81012988 C110.08523472 12.80704426 106.74511204 12.81312339 103.404953 12.81916863 C95.52717071 12.8332253 87.64949684 12.83164277 79.77171326 12.82026672 C71.63786091 12.80878065 63.50433809 12.82286665 55.37052917 12.8496632 C48.39211195 12.87179466 41.41379835 12.87846348 34.43534851 12.87258679 C30.26516328 12.86921029 26.09518937 12.87167804 21.92503357 12.88883781 C18.00478934 12.9042647 14.08503476 12.90039943 10.16481018 12.88153267 C8.7244425 12.87783506 7.28403889 12.88098929 5.84370422 12.89141846 C3.88094182 12.90454764 1.91805372 12.89072302 -0.04469299 12.87542725 C-1.14418274 12.87521796 -2.24367249 12.87500868 -3.3764801 12.87479305 C-6.07984924 12.3742218 -6.07984924 12.3742218 -7.93360901 10.50305271 C-9.35484199 7.86349722 -9.53479368 6.33136065 -9.07984924 3.3742218 C-6.58804249 -0.17560697 -4.14885548 -0.00062801 0 0 Z " fill="#ffffff" transform="translate(254.07984924316406,366.6257781982422)"/>
<path d="M0 0 C1.27177094 -0.00701431 2.54354187 -0.01402863 3.85385132 -0.02125549 C5.26600804 -0.01382758 6.6781632 -0.00609642 8.09031677 0.00190735 C9.57518265 -0.00052019 11.06004689 -0.00423914 12.54490662 -0.00915527 C16.57994558 -0.01857235 20.61474233 -0.00913253 24.64976239 0.00417686 C28.86757276 0.01547823 33.08537098 0.01138492 37.30319214 0.00942993 C44.38575711 0.00854664 51.46822642 0.01963556 58.55076599 0.03804016 C66.74703743 0.05921651 74.9431688 0.06271615 83.13946205 0.0564782 C91.01556984 0.05079016 98.89162815 0.05642306 106.76772881 0.06765175 C110.12376251 0.07230434 113.47976602 0.07316876 116.83580208 0.0710659 C120.78465922 0.06918682 124.7333731 0.0772574 128.68219757 0.0931263 C130.13426814 0.09738057 131.58635321 0.09821206 133.03842735 0.0954361 C135.01471989 0.09223026 136.99102083 0.10249151 138.96728516 0.11352539 C140.62896398 0.1166047 140.62896398 0.1166047 142.32421207 0.11974621 C144.92015076 0.3742218 144.92015076 0.3742218 146.92015076 2.3742218 C147.48090545 8.54252344 147.48090545 8.54252344 145.77502346 11.07264805 C143.12308521 12.93352681 141.15417939 12.754719 137.9296875 12.76190186 C136.67763519 12.77180649 135.42558289 12.78171112 134.1355896 12.79191589 C132.74549768 12.78767762 131.35540671 12.78311974 129.96531677 12.77827454 C128.50339739 12.7839759 127.04148246 12.79093925 125.57957458 12.79907227 C121.60640591 12.81704525 117.63345759 12.81582754 113.66026044 12.81012988 C110.34504281 12.80704385 107.02986786 12.81312397 103.71465629 12.81916863 C95.89436522 12.83322596 88.07418336 12.83164268 80.25389099 12.82026672 C72.18254161 12.8087851 64.11152448 12.822859 56.04021889 12.8496632 C49.1135901 12.87180588 42.18706572 12.8784608 35.26040405 12.87258679 C31.12204437 12.86921244 26.98389767 12.87166367 22.8455677 12.88883781 C18.95404644 12.90428215 15.06301803 12.90037987 11.17151642 12.88153267 C9.74285668 12.87783969 8.31416063 12.88097593 6.88553429 12.89141846 C4.93625922 12.90457937 2.9868573 12.89070313 1.03759766 12.87542725 C-0.05359595 12.87521796 -1.14478956 12.87500868 -2.26904964 12.87479305 C-5.75516773 12.2539553 -6.93952047 11.14406305 -9.07984924 8.3742218 C-9.56523683 5.53123737 -9.60732127 4.12310031 -7.93249607 1.74526691 C-5.2684972 -0.22621658 -3.29435523 -0.00049866 0 0 Z " fill="#ffffff" transform="translate(254.07984924316406,344.6257781982422)"/>
<path d="M0 0 C1.8802462 -0.01062721 1.8802462 -0.01062721 3.79847717 -0.02146912 C5.19015539 -0.01917523 6.58183326 -0.01666553 7.97351074 -0.01396179 C9.43704997 -0.01830828 10.90058693 -0.02349121 12.36412048 -0.02944946 C16.34131573 -0.0428565 20.31841605 -0.04341633 24.2956295 -0.04088616 C27.61341829 -0.03981777 30.93118776 -0.04469636 34.24897242 -0.04949158 C42.07399593 -0.06059231 49.89897144 -0.06102077 57.72399902 -0.05497742 C65.80326337 -0.04893381 73.88235373 -0.06125711 81.96158838 -0.08254749 C88.89328451 -0.10014389 95.82492516 -0.10616802 102.75664282 -0.10290974 C106.89885023 -0.10109386 111.04093349 -0.10376346 115.18312073 -0.11762428 C119.07702249 -0.1301665 122.97065223 -0.12829305 126.86454964 -0.11521339 C128.29524386 -0.11284028 129.72595703 -0.1156085 131.15662956 -0.12383652 C133.10626671 -0.13424249 135.05598084 -0.12443514 137.00561523 -0.11352539 C138.09773064 -0.11369313 139.18984604 -0.11386087 140.31505585 -0.1140337 C143.00280762 0.26069641 143.00280762 0.26069641 144.85810089 1.56142902 C146.75590739 4.3786403 146.30085576 6.98216684 146.00280762 10.26069641 C143.28640824 12.97709579 141.85261842 12.51434597 138.04994202 12.52139282 C136.78099091 12.52847763 135.51203979 12.53556244 134.20463562 12.54286194 C132.79043544 12.5405679 131.37623559 12.53805817 129.96203613 12.53535461 C128.47894025 12.53969979 126.99584662 12.54488228 125.51275635 12.55084229 C121.4776529 12.56426479 117.44264292 12.56480735 113.40752149 12.56227899 C110.04256174 12.56121144 106.67762108 12.5660871 103.3126654 12.57088441 C95.37595033 12.58199091 87.43928257 12.58241064 79.50256348 12.57637024 C71.30687329 12.57032878 63.11135472 12.58264317 54.91569382 12.60394031 C47.88635427 12.62153698 40.85706944 12.62756072 33.82770866 12.62430257 C29.62624222 12.62248641 25.42489818 12.62515877 21.22345161 12.63901711 C17.2729309 12.65155943 13.32267829 12.64968574 9.37216187 12.63660622 C7.92050525 12.63423297 6.46882998 12.63700179 5.01719475 12.64522934 C3.03903983 12.65563439 1.06080906 12.64582849 -0.91734314 12.63491821 C-2.02550605 12.63508595 -3.13366896 12.6352537 -4.27541256 12.63542652 C-6.99719238 12.26069641 -6.99719238 12.26069641 -8.88499546 10.9599638 C-9.99719238 9.26069641 -9.99719238 9.26069641 -9.87219238 5.69819641 C-8.40110506 -0.08107523 -5.33628451 0.01003071 0 0 Z " fill="#ffffff" transform="translate(254.9971923828125,145.7393035888672)"/>
<path d="M0 0 C0.901241 -0.00540298 1.80248199 -0.01080597 2.73103333 -0.01637268 C5.70969496 -0.02887855 8.68739356 -0.01235648 11.66601562 0.00561523 C13.73579967 0.00546029 15.80558401 0.00397207 17.87536621 0.00120544 C22.21310248 -0.00017938 26.55050845 0.01239373 30.88818359 0.03515625 C36.45026048 0.06354094 42.01178844 0.06080459 47.57390594 0.04806614 C51.84784641 0.04111342 56.12165985 0.04889363 60.39558411 0.06132317 C62.44651299 0.06584161 64.49745549 0.06617105 66.54838562 0.06225777 C69.41405218 0.05934957 72.27896047 0.07583397 75.14453125 0.09765625 C76.41796135 0.09090378 76.41796135 0.09090378 77.71711731 0.08401489 C81.17973309 0.12785845 83.4892237 0.20023428 86.59899902 1.80821228 C88.07226562 3.50170898 88.07226562 3.50170898 88.57226562 7.00170898 C88.07226562 10.50170898 88.07226562 10.50170898 86.59326172 12.19718933 C82.89608591 14.11033728 79.30221846 13.91103928 75.23632812 13.87402344 C74.3448407 13.8776741 73.45335327 13.88132477 72.53485107 13.88508606 C69.58879532 13.89319023 66.64328981 13.87958245 63.69726562 13.86499023 C61.64990235 13.86447161 59.60253857 13.86498939 57.55517578 13.86650085 C53.2645728 13.86641114 48.97415774 13.85598253 44.68359375 13.83789062 C39.18214022 13.81520359 33.68096131 13.81465945 28.17947388 13.82140827 C23.95187944 13.82474879 19.72434769 13.81811658 15.49676514 13.80827904 C13.46816333 13.80442818 11.43955455 13.80327835 9.41094971 13.80486488 C6.57656558 13.80523549 3.74253428 13.79261652 0.90820312 13.77636719 C-0.35120087 13.78008331 -0.35120087 13.78008331 -1.63604736 13.78387451 C-9.12731094 13.7152873 -9.12731094 13.7152873 -11.92773438 11.50170898 C-12.92773438 8.12670898 -12.92773438 8.12670898 -12.92773438 4.50170898 C-9.60737704 -0.55292582 -5.4984341 -0.06261673 0 0 Z " fill="#ffffff" transform="translate(257.927734375,189.498291015625)"/>
<path d="M0 0 C1.32019135 -0.0076664 1.32019135 -0.0076664 2.66705322 -0.01548767 C5.57571212 -0.02938493 8.48413412 -0.02842682 11.39282227 -0.02612305 C13.41537057 -0.03000984 15.43791805 -0.03434448 17.46046448 -0.03910828 C21.69974412 -0.04657073 25.93894048 -0.04627896 30.17822266 -0.04101562 C35.61012763 -0.03522035 41.0416917 -0.05215337 46.47354031 -0.0753603 C50.65055839 -0.09009353 54.8274943 -0.0909699 59.00453377 -0.08785057 C61.00719948 -0.08836397 63.00986977 -0.09360515 65.0125103 -0.10366249 C67.81325295 -0.11600179 70.61333046 -0.10925027 73.4140625 -0.09765625 C74.24071915 -0.10529999 75.06737579 -0.11294373 75.91908264 -0.12081909 C80.46328982 -0.07924985 83.66586258 0.18326813 87.27172852 3.2746582 C87.77172852 6.7746582 87.77172852 6.7746582 87.27172852 10.2746582 C85.98438168 11.9691782 85.98438168 11.9691782 84.27172852 13.2746582 C81.23549374 13.57628602 78.40365303 13.69457786 75.36572266 13.67871094 C73.99944984 13.68900581 73.99944984 13.68900581 72.60557556 13.69950867 C69.58918753 13.71783728 66.57331663 13.71393046 63.55688477 13.70825195 C61.46325002 13.71281093 59.36961677 13.71811565 57.27598572 13.72413635 C52.88526332 13.73307944 48.4947227 13.73063078 44.10400391 13.72070312 C38.47345002 13.70921365 32.84352327 13.72941879 27.2130518 13.75862026 C22.88850408 13.77695473 18.56410739 13.77669526 14.23953056 13.77098274 C12.163468 13.77082918 10.08739541 13.77690211 8.01136971 13.78927422 C5.10955446 13.8041298 2.20890726 13.79354695 -0.69287109 13.77636719 C-1.98268387 13.79086914 -1.98268387 13.79086914 -3.29855347 13.80566406 C-7.11854964 13.75823739 -9.10638721 13.71227965 -12.29298401 11.46986389 C-13.72827148 9.2746582 -13.72827148 9.2746582 -13.72827148 5.6496582 C-12.72827148 2.2746582 -12.72827148 2.2746582 -11.21128845 1.08088684 C-7.51052742 -0.12073987 -3.85031562 -0.01151087 0 0 Z " fill="#ffffff" transform="translate(258.728271484375,288.725341796875)"/>
<path d="M0 0 C1.38331261 -0.00788544 1.38331261 -0.00788544 2.79457092 -0.01593018 C5.84824473 -0.02915277 8.90139885 -0.02038402 11.95507812 -0.01025391 C14.07352804 -0.01227399 16.19197728 -0.01518488 18.3104248 -0.01895142 C22.75242731 -0.02337784 27.19424896 -0.0169334 31.63623047 -0.00292969 C37.33629501 0.01416227 43.03593581 0.0043228 48.7359848 -0.01364708 C53.11109625 -0.02447627 57.48610687 -0.02104253 61.86122131 -0.0132637 C63.96322174 -0.01125931 66.06523125 -0.01372933 68.16722107 -0.02070236 C71.10261358 -0.02830253 74.03731532 -0.01673262 76.97265625 0 C77.84547745 -0.00607269 78.71829865 -0.01214539 79.61756897 -0.0184021 C85.54289635 0.0443223 85.54289635 0.0443223 87.7095871 1.72449303 C89.6787924 4.29051716 89.37750187 6.25879361 88.98632812 9.38818359 C87.7095871 11.05145359 87.7095871 11.05145359 85.98632812 12.38818359 C82.91498568 12.68984432 80.04572035 12.80808591 76.97265625 12.79223633 C75.58934364 12.8025312 75.58934364 12.8025312 74.17808533 12.81303406 C71.12442709 12.83136168 68.07127965 12.82745639 65.01757812 12.82177734 C62.89912752 12.82633597 60.7806784 12.83164059 58.66223145 12.83766174 C54.22023514 12.84660435 49.77841852 12.84415625 45.33642578 12.83422852 C39.63627428 12.82273197 33.93674162 12.84295529 28.23667145 12.87214565 C23.86155236 12.89046599 19.48658274 12.89022361 15.11143494 12.88450813 C13.00942618 12.88435444 10.9074076 12.89043843 8.80543518 12.90279961 C5.86989165 12.91763072 2.93550656 12.90709096 0 12.88989258 C-1.3092318 12.90439453 -1.3092318 12.90439453 -2.64491272 12.91918945 C-8.5135187 12.84697036 -8.5135187 12.84697036 -11.05358887 10.51698303 C-12.24085433 7.88445018 -12.45316104 6.24486317 -12.01367188 3.38818359 C-8.80395427 -0.70593977 -4.82524414 -0.03357185 0 0 Z " fill="#ffffff" transform="translate(257.013671875,388.61181640625)"/>
<path d="M0 0 C0.87641647 0.00247742 1.75283295 0.00495483 2.6558075 0.00750732 C3.57786987 0.00239639 4.49993225 -0.00271454 5.44993591 -0.00798035 C8.50894089 -0.02192165 11.56772172 -0.02091616 14.62675476 -0.01861572 C16.74663375 -0.02250019 18.86651197 -0.02683434 20.98638916 -0.03160095 C25.43432638 -0.03907296 29.88218424 -0.03876481 34.3301239 -0.0335083 C40.03804379 -0.02771274 45.74563929 -0.04464216 51.45350552 -0.06785297 C55.83289498 -0.08256489 60.21220588 -0.08346548 64.59161568 -0.08034325 C66.69641322 -0.08085775 68.80121501 -0.08611957 70.90598869 -0.09615517 C73.84624858 -0.10845284 76.78587079 -0.10176799 79.72612 -0.09014893 C81.03770836 -0.10161453 81.03770836 -0.10161453 82.37579346 -0.11331177 C88.31249589 -0.06129701 88.31249589 -0.06129701 90.47934055 1.61805439 C92.44774906 4.18453407 92.14683233 6.15279501 91.75566101 9.28216553 C90.47891998 10.94585609 90.47891998 10.94585609 88.75566101 12.28216553 C85.68388805 12.57863176 82.81492284 12.6917292 79.74198914 12.67034912 C78.35867653 12.67823456 78.35867653 12.67823456 76.94741821 12.6862793 C73.8937444 12.69950189 70.84059028 12.69073314 67.78691101 12.68060303 C65.6684611 12.68262311 63.55001186 12.685534 61.43156433 12.68930054 C56.98956183 12.69372696 52.54774017 12.68728252 48.10575867 12.67327881 C42.40569412 12.65618686 36.70605332 12.66602632 31.00600433 12.6839962 C26.63089289 12.69482539 22.25588227 12.69139165 17.88076782 12.68361282 C15.7787674 12.68160843 13.67675788 12.68407846 11.57476807 12.69105148 C8.63937556 12.69865165 5.70467381 12.68708174 2.76933289 12.67034912 C1.46010109 12.67945816 1.46010109 12.67945816 0.12442017 12.68875122 C-5.77932637 12.62625527 -5.77932637 12.62625527 -8.00275421 10.98101234 C-9.24433899 9.28216553 -9.24433899 9.28216553 -9.05683899 5.71966553 C-7.67770887 -0.11511575 -5.58896051 0.04963496 0 0 Z " fill="#ffffff" transform="translate(254.2443389892578,90.71783447265625)"/>
<path d="M0 0 C1.875 1.125 1.875 1.125 3 3 C3.625 5.6875 3.625 5.6875 3 9 C0.99605367 11.98665078 -1.47144768 14.45357806 -4 17 C-4.85335937 17.87914062 -5.70671875 18.75828125 -6.5859375 19.6640625 C-15.68278006 28.9209668 -15.68278006 28.9209668 -20.125 29.1875 C-25.80296842 28.16619519 -29.79729149 23.5106579 -33 19 C-33.94211352 15.78701169 -33.71140783 14.3791872 -33 11 C-29.53076119 8.68717413 -28.07794425 8.57521414 -24 9 C-22.125 10.5 -22.125 10.5 -21 12 C-17.34858644 10.4744094 -15.09881888 8.27519091 -12.375 5.4375 C-8.1322422 1.03264348 -6.28078429 -0.51271708 0 0 Z " fill="#ffffff" transform="translate(207,160)"/>
<path d="M0 0 C3.19140625 1.02734375 3.19140625 1.02734375 5.19140625 3.02734375 C5.75390625 5.65234375 5.75390625 5.65234375 5.19140625 9.02734375 C3.20862323 12.02778031 0.71945857 14.481976 -1.80859375 17.02734375 C-2.75677594 18.00104359 -3.70467696 18.97501729 -4.65234375 19.94921875 C-13.38987807 28.85050104 -13.38987807 28.85050104 -17.59765625 29.375 C-21.81828233 28.91802224 -23.22089803 27.44978193 -26.18359375 24.46484375 C-27.05757812 23.61792969 -27.9315625 22.77101563 -28.83203125 21.8984375 C-31.28592559 18.33398623 -31.2678055 16.27126772 -30.80859375 12.02734375 C-29.74609375 10.02734375 -29.74609375 10.02734375 -27.80859375 9.02734375 C-23.06014598 9.20001458 -20.44275025 10.07209561 -16.80859375 13.02734375 C-15.95136719 12.07730469 -15.09414062 11.12726563 -14.2109375 10.1484375 C-13.05708789 8.91954076 -11.90207849 7.69173226 -10.74609375 6.46484375 C-10.18470703 5.83642578 -9.62332031 5.20800781 -9.04492188 4.56054688 C-4.71612232 0.03385934 -4.71612232 0.03385934 0 0 Z " fill="#ffffff" transform="translate(204.80859375,258.97265625)"/>
<path d="M0 0 C2.33773444 3.50660166 2.49041364 4.87248695 2 9 C-0.51652553 12.73735455 -3.84832168 15.72951083 -7.0625 18.875 C-7.91005859 19.75414062 -8.75761719 20.63328125 -9.63085938 21.5390625 C-15.86983228 27.74431123 -15.86983228 27.74431123 -20.78125 28.85546875 C-24.75002311 27.80066133 -26.57137566 26.36469852 -29.4375 23.4375 C-30.30246094 22.59058594 -31.16742188 21.74367188 -32.05859375 20.87109375 C-34.47117301 17.30319484 -34.49748859 15.22614047 -34 11 C-32.375 9 -32.375 9 -30 8 C-25.62537331 8.18227611 -23.35661654 9.32338767 -20 12 C-19.15695313 11.14535156 -18.31390625 10.29070312 -17.4453125 9.41015625 C-16.33867407 8.29413953 -15.23189598 7.17826128 -14.125 6.0625 C-13.56941406 5.49853516 -13.01382813 4.93457031 -12.44140625 4.35351562 C-7.89781193 -0.21744975 -6.39605769 -1.59901442 0 0 Z " fill="#ffffff" transform="translate(208,359)"/>
<path d="M0 0 C1.9375 1.125 1.9375 1.125 3 3 C3.40240447 6.60418507 3.42455135 8.38555547 1.33520508 11.40942383 C0.57103271 12.16763428 -0.19313965 12.92584473 -0.98046875 13.70703125 C-2.2324707 14.95709961 -2.2324707 14.95709961 -3.50976562 16.23242188 C-4.39341797 17.08384766 -5.27707031 17.93527344 -6.1875 18.8125 C-7.05181641 19.68326172 -7.91613281 20.55402344 -8.80664062 21.45117188 C-16.16966239 28.69006607 -16.16966239 28.69006607 -21 29 C-25.92930568 26.48290774 -30.12633208 22.75641587 -33 18 C-33.5 14.1875 -33.5 14.1875 -33 11 C-31 9 -31 9 -27.6875 8.6875 C-23.80707012 9.01634999 -22.18960014 9.91934862 -19 12 C-18.21496094 11.13375 -17.42992187 10.2675 -16.62109375 9.375 C-15.56086162 8.24908977 -14.49960934 7.12413957 -13.4375 6 C-12.66696289 5.14148438 -12.66696289 5.14148438 -11.88085938 4.265625 C-8.06470476 0.28355062 -5.73343313 -0.79321769 0 0 Z " fill="#ffffff" transform="translate(207,61)"/>
</svg>
