<?xml version="1.0" encoding="UTF-8"?>
<svg version="1.1" xmlns="http://www.w3.org/2000/svg" width="512" height="512">
<path d="M0 0 C1.20962465 -0.00467997 2.41924931 -0.00935994 3.66552925 -0.01418173 C7.01543405 -0.02406893 10.36483341 -0.02052217 13.71470737 -0.01122308 C17.33030997 -0.00443243 20.94586856 -0.01491389 24.5614624 -0.02316284 C31.64135413 -0.03650221 38.72115043 -0.03362154 45.80104589 -0.02492492 C51.555055 -0.01814958 57.30903737 -0.017231 63.06304932 -0.02049637 C63.88201097 -0.02095607 64.70097262 -0.02141577 65.54475129 -0.0218894 C67.2084597 -0.02284857 68.87216811 -0.02382121 70.53587651 -0.02480717 C86.13622929 -0.03336166 101.73652919 -0.02352601 117.33687329 -0.00740607 C130.7224928 0.00599717 144.10803425 0.00366909 157.49365234 -0.01016235 C173.03820773 -0.02621712 188.58271676 -0.03253768 204.12727928 -0.02332556 C205.78486505 -0.02236992 207.44245083 -0.0214268 209.10003662 -0.02049637 C210.32338028 -0.01980213 210.32338028 -0.01980213 211.57143795 -0.01909386 C217.3184903 -0.01650367 223.06551324 -0.02087561 228.81256104 -0.02793503 C235.81636886 -0.03634908 242.82007582 -0.03407191 249.82387209 -0.0180928 C253.39728376 -0.01020876 256.97052726 -0.00712063 260.54393768 -0.01704025 C264.4170822 -0.02762931 268.28995135 -0.01498495 272.16308594 0 C273.29323687 -0.00669217 274.42338779 -0.01338433 275.58778572 -0.02027929 C281.14561746 0.02155556 285.33501079 0.13892305 290.08154297 3.38095093 C294.40354986 8.22225739 294.64387195 12.15281265 294.53564453 18.32382202 C294.53622864 19.20251953 294.53681274 20.08121704 294.53741455 20.98654175 C294.53463913 23.87623295 294.5035729 26.76487856 294.47216797 29.65438843 C294.46470365 31.66362952 294.45901162 33.67287792 294.45501709 35.68212891 C294.43977584 40.95946503 294.40050682 46.23635781 294.35620117 51.51351929 C294.31521603 56.90286258 294.29699914 62.29227781 294.27685547 67.68173218 C294.23401128 78.24833275 294.16577805 88.81460491 294.08154297 99.38095093 C293.43880936 99.20639374 292.79607574 99.03183655 292.13386536 98.85198975 C289.16638098 98.05019901 286.19628815 97.25850506 283.22607422 96.46688843 C282.2154895 96.19223755 281.20490479 95.91758667 280.16369629 95.63461304 C270.85614086 93.16728032 261.67900645 91.93178777 252.08154297 91.38095093 C250.71255859 91.29200562 250.71255859 91.29200562 249.31591797 91.20126343 C225.38466175 90.46867395 192.15206851 97.06939046 173.73304749 113.47239685 C168.65084284 116.84295546 162.19975955 115.90511633 156.3527832 115.84750366 C154.95115987 115.84805282 153.54953625 115.85043014 152.1479187 115.85449219 C149.13746779 115.85965772 146.12738185 115.85262868 143.11697197 115.83624077 C138.35571023 115.81108422 133.59480719 115.81741606 128.83351135 115.82872009 C117.01046764 115.85189954 105.18752853 115.83347845 93.36450195 115.80722046 C84.16946444 115.78727519 74.97471389 115.77868868 65.77967602 115.80415684 C61.04736654 115.81597097 56.31587492 115.80432406 51.58365047 115.77490413 C48.63990034 115.76164392 45.69646706 115.7690696 42.75272751 115.7821846 C40.73909064 115.7849245 38.72546811 115.76274354 36.71195984 115.73982239 C29.66307171 115.53338409 29.66307171 115.53338409 23.73158264 118.75413513 C21.8488293 121.23441398 21.8488293 121.23441398 22.08154297 124.00595093 C23.15561593 126.55687421 23.91769473 127.68309133 26.08154297 129.38095093 C28.45180548 129.8395291 28.45180548 129.8395291 31.14982605 129.77967834 C32.19730515 129.79221649 33.24478424 129.80475464 34.32400513 129.81767273 C35.47271088 129.81623764 36.62141663 129.81480255 37.80493164 129.81332397 C39.01481247 129.82351562 40.2246933 129.83370728 41.47123718 129.84420776 C44.7892644 129.86924685 48.10684872 129.88106774 51.42493224 129.88706183 C54.89235098 129.89643469 58.35964114 129.92263713 61.82698059 129.94706726 C68.39297557 129.99076608 74.95894564 130.01929217 81.52504188 130.04239064 C89.00025463 130.06942427 96.47533826 130.11333684 103.95045888 130.15867937 C119.32742058 130.25157403 134.70440658 130.32323258 150.08154297 130.38095093 C148.28799533 134.2117153 145.81895655 137.06497849 143.01904297 140.19345093 C136.09385073 148.12911724 130.74259155 156.94748017 126.08154297 166.38095093 C124.25657036 166.38975029 124.25657036 166.38975029 122.39472961 166.39872742 C110.93227968 166.45592562 99.47001998 166.52867221 88.00776386 166.61666584 C82.11480894 166.66140459 76.22192372 166.70065315 70.32885742 166.72738647 C64.64234915 166.75338424 58.9561086 166.79376201 53.26976585 166.84413719 C51.09967566 166.86082972 48.92953913 166.8723291 46.75939369 166.87856483 C43.72106445 166.88817979 40.68342382 166.91620854 37.64526367 166.94857788 C36.74686768 166.94714279 35.84847168 166.9457077 34.92285156 166.94422913 C30.18776931 167.01563259 26.89031231 167.23778372 23.08154297 170.38095093 C21.91176803 172.72967624 21.91176803 172.72967624 22.08154297 175.38095093 C23.14675426 178.18424831 23.14675426 178.18424831 25.08154297 180.38095093 C29.1850336 181.76351525 33.42159561 181.556125 37.70556641 181.58627319 C39.00854424 181.60112259 39.00854424 181.60112259 40.33784485 181.61627197 C43.20550828 181.64782821 46.07318827 181.6726212 48.94091797 181.69735718 C50.93060738 181.71793178 52.92029246 181.73892838 54.90997314 181.7603302 C60.14435321 181.81549861 65.37877238 181.86493098 70.61322021 181.91317749 C75.95556108 181.96343069 81.29784522 182.01909683 86.64013672 182.0743103 C97.120557 182.18182791 107.60102655 182.2832871 118.08154297 182.38095093 C117.76461428 183.96846033 117.4475259 185.55593785 117.13037109 187.1434021 C116.95380981 188.0274321 116.77724854 188.9114621 116.59533691 189.82228088 C116.16943229 191.94326616 115.73585773 194.06270961 115.30029297 196.18173218 C114.94451172 197.92003296 114.94451172 197.92003296 114.58154297 199.69345093 C114.22576172 201.42015015 114.22576172 201.42015015 113.86279297 203.18173218 C113.15224887 206.82086785 112.59163312 210.47815493 112.03271484 214.1434021 C111.8541394 215.31207321 111.67556396 216.48074432 111.49157715 217.68482971 C111.28861023 219.01940971 111.28861023 219.01940971 111.08154297 220.38095093 C110.0528157 220.38681717 109.02408844 220.39268341 107.96418762 220.39872742 C98.2676525 220.45594953 88.57134175 220.52870854 78.87503529 220.61666584 C73.89009532 220.66138632 68.90523739 220.70063881 63.92016602 220.72738647 C59.10895238 220.75340263 54.29805418 220.7937932 49.48703575 220.84413719 C47.65188204 220.86081731 45.81667375 220.87232445 43.98145485 220.87856483 C41.41007065 220.88819348 38.83949555 220.91623754 36.26831055 220.94857788 C35.13110817 220.94642525 35.13110817 220.94642525 33.97093201 220.94422913 C29.52542799 221.02326285 26.59546996 221.59078073 23.08154297 224.38095093 C21.96451292 227.28522904 21.83618587 228.70150049 22.89404297 231.63095093 C23.97553665 233.53170017 23.97553665 233.53170017 26.08154297 234.38095093 C28.76580284 234.50343309 31.42582082 234.56664914 34.11132812 234.58627319 C34.94067368 234.59617279 35.77001923 234.60607239 36.62449646 234.61627197 C39.37317016 234.64792757 42.12186115 234.67266042 44.87060547 234.69735718 C46.77347266 234.7179232 48.67633524 234.73891958 50.57919312 234.7603302 C55.59330522 234.81558719 60.60745879 234.86498046 65.62164307 234.91317749 C70.73591819 234.96336605 75.8501329 235.01906591 80.96435547 235.0743103 C91.0033664 235.18193624 101.04242972 235.28337135 111.08154297 235.38095093 C112.14914919 237.51616336 112.38878866 239.06570678 112.69482422 241.42391968 C112.80890625 242.25214233 112.92298828 243.08036499 113.04052734 243.9336853 C113.2693051 245.63877476 113.49356507 247.34447907 113.71240234 249.0508728 C114.48168674 254.56197578 115.67856175 259.87637793 117.14477539 265.24154663 C117.42410038 266.27564541 117.42410038 266.27564541 117.7090683 267.33063507 C118.16429985 269.01468624 118.62260505 270.69790604 119.08154297 272.38095093 C117.92309372 272.38903778 116.76464447 272.39712463 115.5710907 272.40545654 C104.66726271 272.48285621 93.76356045 272.57057977 82.85989666 272.66847801 C77.25387242 272.71847791 71.64786736 272.76480763 66.04174805 272.80282593 C60.63410089 272.83963204 55.22661283 272.88597924 49.81910133 272.93901443 C47.75341386 272.95758326 45.68769225 272.97268196 43.62195396 272.98429489 C40.73421217 273.00111475 37.84683675 273.03013943 34.95922852 273.06210327 C34.10039566 273.06426346 33.24156281 273.06642365 32.35670471 273.06864929 C28.43195851 273.12434671 26.41953726 273.1556214 23.08154297 275.38095093 C21.90356908 278.1965044 21.90356908 278.1965044 22.08154297 281.38095093 C24.07139081 284.1697413 25.68439033 286.06310666 29.12436867 286.84568214 C31.67367817 287.0376946 34.18054277 287.06466744 36.73706055 287.04037476 C37.70339417 287.05085846 38.66972778 287.06134216 39.66534424 287.07214355 C42.85258078 287.10089556 46.0387312 287.09460162 49.22607422 287.08798218 C51.43854636 287.10109706 53.65100653 287.11640064 55.8634491 287.13380432 C61.68153181 287.17369127 67.49930156 287.18384721 73.31750488 287.18783569 C79.25652584 287.19716007 85.19536237 287.23456933 91.13427734 287.2696228 C102.78335724 287.33423647 114.43229956 287.36744564 126.08154297 287.38095093 C126.99312668 289.02779877 126.99312668 289.02779877 127.92312622 290.70791626 C128.73373305 292.16315236 129.54452361 293.61828613 130.35546875 295.07333374 C130.95389336 296.15616135 130.95389336 296.15616135 131.56440735 297.26086426 C134.57330543 302.64710874 137.90430724 307.46891274 141.95654297 312.13095093 C143.05849351 313.43791552 144.16006888 314.74519654 145.26123047 316.05282593 C145.73286621 316.60035522 146.20450195 317.14788452 146.69042969 317.71200562 C148.2247253 319.55272952 149.64962028 321.45994854 151.08154297 323.38095093 C150.44708913 323.3814957 149.81263529 323.38204046 149.15895557 323.38260174 C133.71840172 323.39757166 118.27820476 323.4400266 102.83782673 323.5130415 C95.37093657 323.54768892 87.90423097 323.57304667 80.43725586 323.57650757 C73.92870931 323.57954784 67.42049147 323.60004634 60.91207188 323.6414755 C57.46607692 323.66280208 54.02054922 323.67540828 50.57448769 323.66710472 C46.72666533 323.6581603 42.87968232 323.68819455 39.03198242 323.7215271 C37.31970963 323.70858864 37.31970963 323.70858864 35.57284546 323.69538879 C29.16006261 323.6407356 29.16006261 323.6407356 23.8346405 326.75810242 C21.83842671 329.21888466 21.83842671 329.21888466 22.08154297 332.00595093 C23.16450624 334.5779887 23.87565004 335.69441819 26.08154297 337.38095093 C28.74422656 337.81612141 28.74422656 337.81612141 31.8081665 337.71911621 C33.59929367 337.71841377 33.59929367 337.71841377 35.42660522 337.71769714 C36.73876007 337.70212265 38.05091492 337.68654816 39.40283203 337.67050171 C40.79763287 337.6647841 42.19244028 337.66051163 43.58724976 337.65757751 C46.59442049 337.64896399 49.60137603 337.63169099 52.6084671 337.60824966 C57.37636891 337.57276529 62.14403052 337.56644711 66.91204834 337.565979 C80.47202455 337.56102191 94.03162747 337.53228291 107.59130859 337.43954468 C115.07819034 337.3885852 122.56443706 337.37024204 130.05148101 337.38713253 C134.00797567 337.3946149 137.96285253 337.38562564 141.91907501 337.33588028 C172.53005561 336.9661774 172.53005561 336.9661774 185.08154297 347.38095093 C188.17511187 349.02598816 191.33243966 350.38742815 194.58154297 351.69345093 C195.37633057 352.01974487 196.17111816 352.34603882 196.98999023 352.68222046 C204.21085721 355.57172363 211.47355551 357.72818124 219.08154297 359.38095093 C220.05865234 359.59364624 221.03576172 359.80634155 222.04248047 360.02548218 C246.64403277 364.70988734 270.28735347 361.2006022 294.08154297 354.38095093 C294.18315586 360.96447533 294.25309766 367.5477967 294.30126953 374.13192749 C294.32135613 376.37061114 294.34863077 378.60924251 294.38330078 380.8477478 C294.4319476 384.06988442 294.45454171 387.29132594 294.47216797 390.51376343 C294.49281311 391.51086334 294.51345825 392.50796326 294.534729 393.53527832 C294.53658418 399.31051886 294.14702654 402.92418843 290.08154297 407.38095093 C286.5431948 409.87719317 284.14549898 410.7563325 279.82908726 410.76126766 C278.78478033 410.7697076 277.7404734 410.77814754 276.6645208 410.78684324 C274.9532523 410.77782817 274.9532523 410.77782817 273.20741272 410.76863098 C271.38200672 410.77670929 271.38200672 410.77670929 269.51972383 410.78495079 C266.14476431 410.79678595 262.7702983 410.79515727 259.3953582 410.78778398 C255.75451046 410.78305749 252.11371589 410.79555754 248.47288513 410.80580139 C241.34139358 410.82300489 234.20999009 410.82382621 227.07848317 410.81858849 C221.2824963 410.81454847 215.48653547 410.81598834 209.69054985 410.82133675 C208.86590199 410.82208517 208.04125413 410.82283359 207.19161693 410.82360469 C205.51639298 410.82513615 203.84116904 410.8266745 202.16594511 410.82821966 C186.45305354 410.84195029 170.74021176 410.83650304 155.02732133 410.82503445 C140.65008825 410.81510123 126.27298385 410.82804324 111.89577062 410.85196864 C97.13534797 410.8763468 82.37498528 410.88597069 67.6145429 410.87931591 C59.32681787 410.87582086 51.03919183 410.87807457 42.75148201 410.89556694 C35.69639314 410.91027289 28.64147296 410.91094549 21.58638746 410.89349603 C17.98660506 410.88497033 14.38712419 410.88287437 10.78735733 410.89814758 C6.8856353 410.91449706 2.98438097 410.89987795 -0.91734314 410.88215637 C-2.05595808 410.89176138 -3.19457303 410.90136639 -4.36769146 410.91126245 C-10.34431171 410.85523469 -14.34572825 410.66053696 -18.91845703 406.38095093 C-21.83980711 402.39412358 -22.29451787 399.56364525 -22.29877377 394.66046238 C-22.30343368 393.99464825 -22.3080936 393.32883413 -22.31289473 392.64284381 C-22.32486279 390.40776807 -22.31544275 388.17329818 -22.30613708 385.93821716 C-22.31030922 384.32125253 -22.31578608 382.70429083 -22.3224569 381.08733457 C-22.33694601 376.64073991 -22.33265599 372.19433006 -22.32529008 367.74772513 C-22.32056928 362.95349792 -22.3330586 358.15931133 -22.3433075 353.36509705 C-22.36052211 343.97164536 -22.36133001 334.57826049 -22.35609459 325.18479712 C-22.35205668 317.55147422 -22.35349194 309.91817111 -22.35884285 302.28484917 C-22.35959127 301.19931735 -22.36033969 300.11378553 -22.3611108 298.99535881 C-22.36264224 296.79025686 -22.36418058 294.58515491 -22.36572576 292.38005298 C-22.37946039 271.6912639 -22.37400631 251.00251261 -22.36254055 230.31372439 C-22.35260673 211.37760208 -22.36554973 192.44157746 -22.38947474 173.50547022 C-22.41384441 154.07131951 -22.42347889 134.63721434 -22.41682202 115.20304865 C-22.41332511 104.28843911 -22.41559296 93.37390473 -22.43307304 82.45930672 C-22.44776836 73.16810594 -22.44846547 63.87703324 -22.43100213 54.58583505 C-22.42246779 49.84382778 -22.4204018 45.10204956 -22.43565369 40.36005402 C-22.44943845 36.02054728 -22.44481816 31.68146718 -22.42541445 27.34198552 C-22.42163496 25.77070745 -22.42463219 24.19939572 -22.4350261 22.62814749 C-22.44814159 20.49400893 -22.43666385 18.36135478 -22.41902828 16.22728062 C-22.41886728 14.44855921 -22.41886728 14.44855921 -22.41870302 12.63390404 C-21.65624814 7.6758833 -19.41599898 4.48758917 -15.4133606 1.52976036 C-10.26682092 -0.16195823 -5.38470474 -0.03188542 0 0 Z M22.08154297 67.38095093 C20.91043848 70.24055152 20.91043848 70.24055152 21.08154297 73.38095093 C22.85193746 76.12811479 24.14446141 77.91241015 27.08154297 79.38095093 C29.29997927 79.48194013 31.52153637 79.51608815 33.74226379 79.52139282 C34.43464872 79.52436394 35.12703364 79.52733507 35.84039992 79.53039622 C38.17185096 79.53910175 40.50325077 79.54059303 42.8347168 79.54208374 C44.50175588 79.54671062 46.16879391 79.55173511 47.83583069 79.55712891 C52.37309295 79.57026787 56.9103404 79.57670084 61.44761872 79.58113956 C64.28092986 79.58406803 67.11423692 79.58817241 69.94754601 79.59264374 C78.8082168 79.60632293 87.66887833 79.61598738 96.52955896 79.61984563 C106.76540884 79.62432684 117.00112521 79.64187591 127.23693448 79.67084622 C135.14357205 79.69244909 143.05017202 79.70254917 150.95683879 79.70388675 C155.68151678 79.70493583 160.40606935 79.71086537 165.13071632 79.72870636 C169.57532634 79.74516284 174.01971634 79.74735438 178.46434593 79.73856735 C180.09577396 79.73779566 181.7272137 79.74215707 183.35861206 79.7520256 C185.5859615 79.76470896 187.81252742 79.75888859 190.03987122 79.7484436 C191.909519 79.75064344 191.909519 79.75064344 193.81693745 79.75288773 C197.36463584 79.34869813 199.25030244 78.51803474 202.08154297 76.38095093 C203.50196118 73.54011451 203.39606569 71.52617815 203.08154297 68.38095093 C200.86044998 65.34019598 199.65506208 64.47114984 195.89871979 63.88037968 C194.63184074 63.88017039 193.3649617 63.87996111 192.05969238 63.87974548 C191.35264239 63.87421109 190.64559239 63.86867669 189.91711664 63.86297458 C187.5477398 63.84936042 185.179415 63.86434039 182.81005859 63.87924194 C181.11154228 63.87545902 179.41302905 63.8699592 177.71452332 63.86286926 C173.10087149 63.84889379 168.48759171 63.86009904 163.87396049 63.87658048 C159.04849827 63.89041852 154.22305791 63.88397232 149.39758301 63.88044739 C141.29364009 63.87774428 133.1898452 63.89122953 125.0859375 63.91439819 C115.71324507 63.94100856 106.34080017 63.9427554 96.9680829 63.93100983 C87.95628469 63.92023506 78.94457613 63.92641675 69.93278503 63.94056511 C66.0955341 63.94632753 62.25834871 63.94624022 58.4210968 63.94149971 C53.90337347 63.93673155 49.38592158 63.94682487 44.86824989 63.96845436 C43.20900195 63.97402461 41.54972794 63.97448534 39.89047813 63.9695015 C37.62781417 63.96355692 35.36598247 63.97603693 33.10339355 63.99327087 C31.20307499 63.99691572 31.20307499 63.99691572 29.26436615 64.00063419 C25.85228487 64.40834506 24.46550683 64.95026148 22.08154297 67.38095093 Z " fill="#ffffff" transform="translate(36.91845703125,66.61904907226563)"/>
<path d="M0 0 C0.69963867 0.21962402 1.39927734 0.43924805 2.12011719 0.66552734 C32.70057188 10.60804517 58.52920682 32.11200402 73.25 60.75 C88.11021313 91.13096219 90.46980472 125.29463411 79.55102539 157.36132812 C76.23891648 166.52742045 72.17793861 176.38755552 66 184 C67.58015042 187.82050448 70.00150753 190.25979726 72.90234375 193.16796875 C73.61989586 193.88839104 73.61989586 193.88839104 74.35194397 194.62336731 C75.36067151 195.63345145 76.37191163 196.6410319 77.38549805 197.64624023 C78.93580309 199.18581484 80.47512593 200.73579337 82.01367188 202.28710938 C82.996755 203.26887128 83.98045816 204.2500128 84.96484375 205.23046875 C85.8580835 206.12145264 86.75132324 207.01243652 87.67163086 207.93041992 C89.90136993 210.1859574 89.90136993 210.1859574 93 211 C93.886875 210.505 94.77375 210.01 95.6875 209.5 C99.78281705 207.64551681 102.83005886 207.45848165 107 209 C114.13318645 214.14552907 120.14379423 221.07798867 126.2890625 227.328125 C129.68414635 230.75820972 133.07373539 234.12093621 136.75 237.25 C143.45081156 243.00871726 149.52147729 249.46831223 155.72753906 255.74804688 C164.3299233 264.47539226 164.3299233 264.47539226 173.46289062 272.63891602 C177.17360298 275.92468815 178.75616477 278.89336319 179.8125 283.6875 C179.11367763 293.50779329 166.65414651 302.52240365 160.1875 309.0625 C159.35114014 309.90852783 158.51478027 310.75455566 157.65307617 311.6262207 C156.85361572 312.42116943 156.05415527 313.21611816 155.23046875 314.03515625 C154.51270264 314.7506665 153.79493652 315.46617676 153.05541992 316.20336914 C149.84757409 319.00732893 147.16240015 320.40107897 142.875 320.1875 C138.61749248 319.52274888 136.48497237 318.01384204 133.359375 315.08984375 C132.48845215 314.27717041 131.6175293 313.46449707 130.72021484 312.62719727 C126.20929962 308.27053251 121.77706043 303.84141804 117.375 299.375 C110.47235683 292.31485449 110.47235683 292.31485449 103.17578125 285.671875 C97.0563208 280.42861002 91.4856925 274.59013408 85.8125 268.875 C84.63890797 267.69637945 83.4650814 266.51799238 82.29101562 265.33984375 C79.65692837 262.69586327 77.024658 260.05010037 74.39614868 257.40057373 C73.00956874 256.00959907 71.61161941 254.62998841 70.21362305 253.25048828 C67.18991785 250.1764269 66.14358771 248.34972448 65.6875 244.0625 C66 241 66 241 67.625 238.375 C68.07875 237.59125 68.5325 236.8075 69 236 C67.74325517 231.99038553 64.62530964 229.61528999 61.5625 226.9375 C55.48127235 221.5033105 49.71563678 215.81689806 44 210 C40.58823674 211.97792654 37.36411815 214.13964154 34.14355469 216.41333008 C7.24892019 235.12840973 -26.71806622 241.47007915 -58.9375 235.8125 C-61.30454795 235.26095485 -63.66047038 234.65857361 -66 234 C-67.22847656 233.6596875 -68.45695312 233.319375 -69.72265625 232.96875 C-89.92101642 226.7860048 -107.01486807 215.77900907 -122 201 C-122.86496094 200.14792969 -123.72992188 199.29585937 -124.62109375 198.41796875 C-146.0393346 176.1309693 -156.63127843 144.74304822 -156.35351562 114.13232422 C-155.43218949 82.18204991 -142.96875123 53.97649212 -121 31 C-120.39027344 30.32710937 -119.78054687 29.65421875 -119.15234375 28.9609375 C-109.03588439 18.17863899 -96.35164784 10.99851608 -83 5 C-81.93265625 4.51660156 -80.8653125 4.03320312 -79.765625 3.53515625 C-55.57337578 -6.56541481 -25.03557838 -7.88996432 0 0 Z M-96 51 C-96.69609375 51.60199219 -97.3921875 52.20398438 -98.109375 52.82421875 C-113.85215445 67.3390614 -123.23634222 89.40237702 -124.3828125 110.59765625 C-125.17859868 136.56883013 -117.35762578 159.39377164 -99.40600586 178.63232422 C-82.38728716 196.16711113 -59.95600919 205.58623104 -35.5625 206.25 C-10.58741176 205.9834569 11.33465335 196.63535455 29 179 C29.76957031 178.24203125 30.53914062 177.4840625 31.33203125 176.703125 C39.68334003 167.99613868 45.10543578 157.93250861 49.375 146.75 C49.61371826 146.12528809 49.85243652 145.50057617 50.09838867 144.85693359 C57.84906015 123.35687926 55.68593302 98.75108205 46.3125 78.1875 C35.8545724 56.61603672 17.94573546 40.46947943 -4.41796875 32.1796875 C-37.06268233 21.42864769 -70.20946279 27.84528813 -96 51 Z " fill="#ffffff" transform="translate(319,177)"/>
<path d="M0 0 C1.04866597 -0.00768229 2.09733195 -0.01536458 3.17777568 -0.02327967 C4.32863397 -0.0215467 5.47949225 -0.01981374 6.66522503 -0.01802826 C7.88876948 -0.0239705 9.11231392 -0.02991275 10.37293547 -0.03603506 C13.77091803 -0.05039701 17.16869836 -0.05575376 20.56669676 -0.05723 C24.23075763 -0.06093238 27.8947747 -0.07602762 31.55881023 -0.08950043 C39.57117844 -0.116662 47.58352662 -0.12871546 55.5959332 -0.13752174 C60.5985238 -0.14304699 65.60110668 -0.15152173 70.60369205 -0.16053009 C84.45359626 -0.1849139 98.30349428 -0.20551339 112.15341949 -0.21228027 C113.48299243 -0.21293897 113.48299243 -0.21293897 114.83942543 -0.21361098 C116.1721811 -0.21426581 116.1721811 -0.21426581 117.53186113 -0.21493387 C119.33231247 -0.21582081 121.13276381 -0.21671393 122.93321514 -0.21761322 C123.82630139 -0.21805608 124.71938765 -0.21849894 125.63953712 -0.21895522 C140.11319962 -0.22685255 154.58666082 -0.26176529 169.06024555 -0.30833226 C183.91894708 -0.35575262 198.77754758 -0.38068363 213.63632601 -0.38301611 C221.9795037 -0.38484993 230.32241904 -0.39636226 238.66552448 -0.43265533 C245.76932318 -0.46344846 252.87277845 -0.4737039 259.9766312 -0.45717913 C263.60098696 -0.44936264 267.22465104 -0.45123905 270.84892178 -0.47929382 C274.77895529 -0.50943722 278.70801425 -0.4930493 282.63812542 -0.47212982 C284.3543746 -0.49629904 284.3543746 -0.49629904 286.10529548 -0.52095652 C292.38368743 -0.44263366 296.07665618 0.22590567 300.6422922 4.68322611 C303.37598393 8.28216709 302.98026954 12.24356507 302.9624052 16.53304291 C302.96368684 17.65169761 302.96368684 17.65169761 302.96499437 18.79295141 C302.96664512 21.29881281 302.9611344 23.80460768 302.95567608 26.31046295 C302.95539409 28.10398609 302.95555216 29.89750934 302.95611858 31.69103241 C302.95640612 36.56674239 302.95051647 41.44242789 302.94354463 46.31813216 C302.93730378 51.41105892 302.93670671 56.50398621 302.93551922 61.5969162 C302.93240807 71.24413121 302.92419757 80.89133492 302.91416973 90.53854495 C302.90300191 101.52026621 302.89749645 112.50198799 302.89247429 123.48371351 C302.88201479 146.07676712 302.86441951 168.66981069 302.84215069 191.26285553 C301.73604123 190.3315644 300.63235056 189.39740006 299.52965069 188.46207428 C298.91476788 187.94217926 298.29988506 187.42228424 297.66636944 186.88663483 C295.95016456 185.35900118 294.39337429 183.76812416 292.84215069 182.07535553 C289.37406115 178.56039992 285.54985612 175.6343623 281.59215069 172.70035553 C280.99660381 172.25345367 280.40105694 171.80655182 279.78746319 171.34610748 C276.03501042 168.61310432 272.17228961 166.29589983 268.08531475 164.09122467 C266.60952953 163.29308098 266.60952953 163.29308098 265.10393047 162.47881317 C264.35754314 162.07754715 263.61115582 161.67628113 262.84215069 161.26285553 C262.84334408 159.44240723 262.84334408 159.44240723 262.84456158 157.58518219 C262.84817443 146.11012841 262.82021331 134.63552098 262.76187229 123.1606102 C262.73288341 117.26213092 262.7147593 111.36404712 262.7220335 105.46549225 C262.72865324 99.76581488 262.70599074 94.06691719 262.66359615 88.36740112 C262.65251204 86.20029986 262.65172203 84.03311908 262.66172695 81.86601257 C262.94748285 65.08876536 262.94748285 65.08876536 255.84215069 50.26285553 C248.194822 42.69703962 239.70408128 40.81152782 229.27525616 40.86412811 C228.23528201 40.85748129 227.19530787 40.85083446 226.12381935 40.84398621 C222.65222507 40.82538993 219.18097647 40.8279593 215.70933819 40.83048248 C213.21557409 40.8214633 210.72181444 40.8111357 208.22806072 40.79959869 C202.86593353 40.77772939 197.50390315 40.76493433 192.14174175 40.76046944 C184.38907528 40.75399824 176.63652574 40.73104388 168.88390648 40.70412614 C156.30441191 40.66089403 143.72492227 40.63090688 131.14537334 40.60929108 C118.92887733 40.58827065 106.71242166 40.56098629 94.49595928 40.5253067 C93.36554714 40.52200846 93.36554714 40.52200846 92.21229839 40.5186436 C88.43149313 40.50757368 84.65068825 40.49638092 80.86988354 40.48512709 C49.52733954 40.39199264 18.18478084 40.32059261 -13.15784931 40.26285553 C-13.25717207 35.81548811 -13.32952934 31.3687184 -13.37757587 26.92057037 C-13.39761722 25.40938817 -13.42485836 23.89828281 -13.45960712 22.38736725 C-13.5084604 20.2076491 -13.53089155 18.02896122 -13.54847431 15.84879303 C-13.56942158 14.53958893 -13.59036884 13.23038483 -13.61195087 11.88150787 C-13.0771724 7.61995593 -11.90369756 5.53341502 -9.15784931 2.26285553 C-6.05322262 0.29889291 -3.64066333 0.01001766 0 0 Z " fill="#ffffff" transform="translate(83.15784931182861,11.737144470214844)"/>
<path d="M0 0 C2.49918984 1.79429014 3.82767128 3.14697035 5.4375 5.75 C5.80981445 8.16113281 5.80981445 8.16113281 5.80078125 10.953125 C5.80158691 12.05197021 5.80239258 13.15081543 5.80322266 14.28295898 C5.77687744 16.12289429 5.77687744 16.12289429 5.75 18 C5.7401709 19.29945557 5.7303418 20.59891113 5.72021484 21.93774414 C5.56760898 36.6912339 5.04758003 51.44210658 4.5625 66.1875 C4.52347565 67.43817261 4.48445129 68.68884521 4.44424438 69.97741699 C4.3290737 73.58820876 4.2015867 77.1983555 4.0703125 80.80859375 C4.03686234 81.89399948 4.00341217 82.97940521 3.96894836 84.09770203 C3.4128408 98.34710656 3.4128408 98.34710656 0.15945435 102.30467224 C-2.84408428 105.01141722 -5.51594063 106.65130343 -9.5625 106.75 C-14.44419426 105.80791865 -17.45426596 104.69506628 -20.5625 100.75 C-23.38944607 92.26916179 -22.77618915 82.2702151 -23.09765625 73.390625 C-23.14063339 72.24374207 -23.18361053 71.09685913 -23.22789001 69.91522217 C-23.31750234 67.49838437 -23.40566218 65.08149231 -23.49243164 62.66455078 C-23.62315904 59.05088925 -23.76149133 55.4375742 -23.90039062 51.82421875 C-24.12115594 45.94940008 -24.30270901 40.07432088 -24.46124268 34.19750977 C-24.52891135 31.8935932 -24.60819306 29.58998928 -24.69891357 27.28686523 C-24.82695492 23.99868328 -24.91585025 20.71152457 -24.99609375 17.421875 C-25.0428273 16.44486633 -25.08956085 15.46785767 -25.13771057 14.46124268 C-25.23156948 8.50816854 -24.30195142 5.34217919 -20.15272522 1.00372314 C-14.94269223 -3.10383273 -5.85655368 -2.05493112 0 0 Z " fill="#ffffff" transform="translate(293.5625,217.25)"/>
<path d="M0 0 C4.83281559 2.07120668 7.2741 5.00490588 9.3671875 9.71875 C10.70421556 14.53865361 10.3309139 19.38746531 8.05078125 23.86328125 C5.09413006 27.82185411 1.66850817 29.67725602 -3 31 C-9.00822468 31.25165339 -13.36255841 29.97494993 -18 26 C-20.97669286 22.20215049 -21.75210871 18.79256501 -22 14 C-21.03973334 8.43045339 -19.27940772 5.65315293 -15 2 C-10.31185997 -1.12542669 -5.48631561 -0.56679817 0 0 Z " fill="#ffffff" transform="translate(290,340)"/>
</svg>
