<?xml version="1.0" encoding="UTF-8"?>
<svg version="1.1" xmlns="http://www.w3.org/2000/svg" width="512" height="512">
<path d="M0 0 C0.85476246 -0.01062222 1.70952492 -0.02124443 2.59018928 -0.03218853 C5.45378419 -0.06149312 8.31616468 -0.05506406 11.17988586 -0.0486145 C13.23335147 -0.06193875 15.28680456 -0.07733007 17.34024048 -0.09463501 C22.9190412 -0.13455314 28.49744252 -0.14213646 34.07637 -0.14151907 C38.73570761 -0.14329891 43.39495719 -0.15921865 48.05426627 -0.17464077 C59.05062043 -0.21017464 70.04676605 -0.21792405 81.04316711 -0.20974731 C92.37866976 -0.20191075 103.71315757 -0.24583553 115.04843205 -0.31454837 C124.78539368 -0.3714437 134.52202703 -0.39348221 144.25915271 -0.38831341 C150.07243073 -0.3857381 155.88487209 -0.39685825 161.69798851 -0.4425621 C167.16911091 -0.48426874 172.63853968 -0.48241877 178.10969353 -0.44760132 C180.11314982 -0.44210987 182.11671725 -0.45186314 184.12000656 -0.47830582 C201.11831259 -0.68755588 201.11831259 -0.68755588 207.27664185 4.75094604 C208.7193663 6.35533359 210.12784871 7.99143995 211.49360657 9.66183472 C212.79925576 10.95446932 214.11890488 12.2331608 215.45405579 13.49530029 C216.73795941 14.77341214 218.01929625 16.05410664 219.29829407 17.33712769 C220.0085524 18.0456337 220.71881073 18.75413971 221.45059204 19.4841156 C223.75909035 21.78827072 226.06398061 24.09599448 228.36860657 26.40402222 C229.98605515 28.02079612 231.60365207 29.63742164 233.22138977 31.25390625 C236.59158646 34.62263665 239.95998768 37.99314917 243.32710266 41.36495972 C247.645751 45.68933693 251.96891696 50.00916569 256.29341125 54.32769585 C259.62541719 57.65609459 262.95504568 60.98686342 266.28395081 64.31836319 C267.87805261 65.91313217 269.47289784 67.50715839 271.0684967 69.10042953 C273.28944841 71.31884869 275.50718156 73.54043563 277.72407532 75.76290894 C278.71362968 76.74942696 278.71362968 76.74942696 279.72317505 77.75587463 C280.32570602 78.36122543 280.928237 78.96657623 281.54902649 79.590271 C282.07252182 80.11414335 282.59601715 80.63801571 283.13537598 81.17776299 C287.06240309 85.46863227 286.76571517 89.22426141 286.72065735 94.72311401 C286.7209494 95.6501413 286.72124146 96.57716858 286.72154236 97.5322876 C286.72014761 100.60030435 286.7045795 103.66807907 286.68891907 106.73605347 C286.68518946 108.8616879 286.68234224 110.98732405 286.68034363 113.11296082 C286.67270311 118.71076189 286.65305097 124.30845937 286.63093567 129.90621948 C286.6104863 135.61706135 286.60134385 141.32791993 286.59126282 147.03878784 C286.56980552 158.24651568 286.53566447 169.45416659 286.49360657 180.66183472 C287.7636554 180.63041382 289.03370422 180.59899292 290.34223938 180.56661987 C295.10564779 180.45708415 299.86894762 180.38880123 304.633255 180.33224487 C306.68552948 180.30228231 308.73767823 180.26149689 310.789505 180.209198 C334.29330978 179.62560791 334.29330978 179.62560791 344.38716125 188.28659058 C350.76746758 194.98979083 353.10287431 202.97215366 352.97462463 212.02024841 C352.97804233 212.91815265 352.98146003 213.81605689 352.9849813 214.74117035 C352.99152856 217.72620724 352.9696365 220.71032905 352.94770813 223.69528198 C352.94657897 225.84436522 352.94721485 227.99345 352.94947815 230.14253235 C352.95062354 235.96013175 352.92714223 241.77739976 352.89918232 247.5949223 C352.87413968 253.68076211 352.8718244 259.76660991 352.86708069 265.85249329 C352.85465936 277.36953921 352.82184902 288.88643286 352.78168273 300.40341181 C352.7369389 313.51822254 352.71497138 326.63304063 352.69490099 339.74790871 C352.65311576 366.71930173 352.58277996 393.69055968 352.49360657 420.66183472 C353.52767639 420.63565063 354.56174622 420.60946655 355.62715149 420.58248901 C359.47540016 420.49177049 363.32355497 420.43450813 367.17256165 420.38717651 C368.83613496 420.36208125 370.49959853 420.32799676 372.16279602 420.28463745 C374.5584981 420.22376012 376.95273908 420.19557703 379.34907532 420.17355347 C380.45873909 420.13484383 380.45873909 420.13484383 381.59082031 420.09535217 C385.55187113 420.09321622 387.30564964 420.51491804 390.46333313 422.98312378 C394.35718664 428.12061304 393.1391505 434.55352755 392.49360657 440.66183472 C389.89941098 453.40391307 382.51492552 465.20824676 371.73579407 472.53683472 C359.68590871 479.93318378 349.11543348 481.1096888 335.28144836 481.08175659 C333.55411229 481.08910665 331.82678112 481.09769558 330.09945679 481.10742188 C325.4345288 481.12953559 320.76977795 481.13257408 316.10480475 481.13067436 C312.20527841 481.13055432 308.30578915 481.13913139 304.40627319 481.14745188 C295.21034262 481.16664522 286.01450284 481.16958286 276.81855774 481.16281128 C267.33434357 481.15615636 257.85051691 481.17910234 248.36638135 481.21612501 C240.21328004 481.24679579 232.06030366 481.25818541 223.9071458 481.2542882 C219.0416737 481.2522199 214.17650403 481.25771408 209.31108665 481.28218079 C204.74146922 481.30440522 200.17248528 481.30260631 195.60286522 481.28225327 C193.92627981 481.27883681 192.24965204 481.28395967 190.57312393 481.29823685 C188.28441667 481.31638378 185.99786986 481.30371831 183.70922852 481.28329468 C182.42894114 481.28400719 181.14865377 481.2847197 179.82956982 481.2854538 C175.61388991 480.49738204 174.13492289 478.96884902 171.49360657 475.66183472 C170.82954407 473.16183472 170.82954407 473.16183472 170.86860657 470.66183472 C170.85571594 469.83683472 170.84282532 469.01183472 170.82954407 468.16183472 C171.79820947 464.51509439 173.60806298 463.0445295 176.49360657 460.66183472 C179.67339611 460.03656483 179.67339611 460.03656483 183.32958984 460.03605652 C184.004676 460.02911197 184.67976216 460.02216743 185.37530547 460.01501244 C187.63105582 459.99778799 189.88510097 460.01603681 192.14082336 460.03414917 C193.76079125 460.02896942 195.38075332 460.0215687 197.0007019 460.01211548 C200.48700009 459.99655242 203.97281747 459.99672357 207.45912743 460.00911903 C212.97783453 460.02867034 218.49611493 460.01345521 224.01480103 459.9936676 C232.75051197 459.96651021 241.48604913 459.96302699 250.22179395 459.96944064 C265.84676586 459.98036754 281.47168423 459.95568608 297.09660274 459.91569299 C302.57574949 459.90265992 308.05473674 459.901341 313.53389108 459.90982592 C316.95306148 459.91346717 320.37219166 459.90913153 323.79135704 459.90298462 C325.36908112 459.90190491 326.94681204 459.90422748 328.52452469 459.91032982 C347.15909616 460.02097536 347.15909616 460.02097536 363.06001282 451.21261597 C365.95619348 447.9187508 367.49564716 444.65775354 369.49360657 440.66183472 C215.71360657 440.66183472 61.93360657 440.66183472 -96.50639343 440.66183472 C-91.13551363 450.32941836 -86.83166761 455.29166523 -76.50639343 458.66183472 C-71.75984686 459.46375308 -67.20650632 459.78657245 -62.39625549 459.78640747 C-61.71593266 459.78781762 -61.03560982 459.78922777 -60.33467114 459.79068065 C-58.07401948 459.79430635 -55.81343163 459.79100906 -53.55278015 459.78781128 C-51.92441255 459.78920738 -50.29604532 459.79110757 -48.66767883 459.79347229 C-45.17064497 459.7979559 -41.67362281 459.79982507 -38.17658615 459.79993439 C-32.64660942 459.80107763 -27.11669898 459.81393545 -21.58674622 459.82949829 C-20.65237697 459.83207114 -19.71800771 459.834644 -18.75532424 459.83729482 C-16.84538137 459.84256077 -14.93543854 459.84784625 -13.02549577 459.85315084 C-0.15762667 459.88824043 12.71015824 459.91480737 25.57807922 459.912323 C34.26828169 459.91073544 42.95825646 459.9267402 51.64838588 459.96302962 C56.24450428 459.98149777 60.84024238 459.99082442 65.43638992 459.97855377 C69.75567842 459.96713229 74.07428458 459.97878441 78.39348221 460.00818825 C79.97813177 460.01483687 81.56284364 460.01294818 83.14746857 460.00189018 C85.31160894 459.98804064 87.47343804 460.00488151 89.63743591 460.02932739 C91.45309649 460.03152723 91.45309649 460.03152723 93.30543709 460.03377151 C97.40840928 460.84204908 98.90173776 462.45207977 101.49360657 465.66183472 C102.15766907 468.16183472 102.15766907 468.16183472 102.11860657 470.66183472 C102.13149719 471.48683472 102.14438782 472.31183472 102.15766907 473.16183472 C101.18569409 476.82103464 99.40025017 478.28045142 96.49360657 480.66183472 C93.16322994 481.28824711 93.16322994 481.28824711 89.29144287 481.2900238 C88.57693232 481.29711819 87.86242177 481.30421258 87.12625939 481.31152195 C84.73700863 481.32909438 82.34938649 481.3110024 79.9601593 481.29293823 C78.24491638 481.29807771 76.52967874 481.3053592 74.81445312 481.31462097 C70.15686868 481.3331495 65.49985613 481.32018339 60.84229541 481.30053067 C55.96052057 481.28413631 51.07878175 481.29295903 46.19699097 481.29804993 C37.99132676 481.302573 29.78589031 481.2866952 21.58027649 481.25875854 C12.11507871 481.2267804 2.65029341 481.2266927 -6.81493336 481.24397331 C-15.93618308 481.25988815 -25.05728268 481.25306821 -34.17852592 481.2360363 C-38.05105053 481.22919205 -41.92345385 481.23017141 -45.79597664 481.23758125 C-50.36880331 481.245293 -54.94116626 481.23295979 -59.51391411 481.20573235 C-61.18431091 481.19889552 -62.85475142 481.19869949 -64.52514648 481.20594788 C-80.73455515 481.26813191 -94.00981225 477.65718168 -106.25639343 466.47433472 C-116.36379989 455.63802875 -119.74289517 443.44416065 -120.10014343 429.07980347 C-119.32939941 424.64295468 -118.03599398 423.41349077 -114.50639343 420.66183472 C-111.58253052 420.22283044 -109.26598398 420.07224574 -106.36186218 420.17355347 C-105.59207535 420.1806282 -104.82228851 420.18770294 -104.0291748 420.19499207 C-101.5830704 420.22286547 -99.13929959 420.28558335 -96.69389343 420.34933472 C-95.03051516 420.37442704 -93.36710081 420.39723859 -91.70365906 420.41769409 C-87.63701186 420.47266801 -83.57209755 420.55888545 -79.50639343 420.66183472 C-79.51192419 419.54938259 -79.51745495 418.43693047 -79.52315331 417.29076767 C-79.65646549 390.19810702 -79.75500235 363.10548901 -79.81726646 336.01256943 C-79.84817878 322.91051309 -79.89030959 309.80867368 -79.95903015 296.70675659 C-80.01891195 285.28452985 -80.05756164 273.86246024 -80.0709244 262.44008088 C-80.07873316 256.39429151 -80.09703165 250.34895162 -80.14077377 244.30330658 C-80.18165301 238.60691834 -80.19403133 232.91116257 -80.18503952 227.21464157 C-80.1866833 225.12977277 -80.1985263 223.0448817 -80.22162628 220.96014023 C-80.3513067 208.64744115 -80.28647144 198.59187191 -71.88283348 188.76290512 C-64.7411216 181.99275153 -56.57893511 180.055371 -47.00248718 180.27120972 C-45.55665001 180.2796994 -45.55665001 180.2796994 -44.081604 180.2883606 C-41.03517222 180.31056065 -37.98996327 180.36072535 -34.94389343 180.41183472 C-32.86513451 180.43192091 -30.78635695 180.45016794 -28.70756531 180.46652222 C-23.64004452 180.51037162 -18.57342552 180.57928391 -13.50639343 180.66183472 C-13.5110024 179.76454053 -13.51561136 178.86724634 -13.52035999 177.94276142 C-13.63073997 156.11836357 -13.71350174 134.29401378 -13.76545429 112.46939564 C-13.79124541 101.91519464 -13.82641337 91.36117987 -13.8835907 80.80709839 C-13.93339776 71.60907913 -13.96567784 62.41119471 -13.97683591 53.21304435 C-13.98335923 48.34178361 -13.99870976 43.47090869 -14.03504372 38.5997715 C-14.06896058 34.01557908 -14.07945513 29.4319317 -14.07193184 24.84762573 C-14.07330832 23.16457343 -14.0832667 21.48150306 -14.10242081 19.79855919 C-14.12729318 17.50063038 -14.12132205 15.20476029 -14.10766602 12.90678406 C-14.11227498 11.62088284 -14.11688395 10.33498163 -14.12163258 9.01011372 C-12.64704814 0.98507152 -7.25440702 -0.07681069 0 0 Z M6.49360657 20.66183472 C6.49360657 139.46183472 6.49360657 258.26183472 6.49360657 380.66183472 C92.29360657 380.66183472 178.09360657 380.66183472 266.49360657 380.66183472 C266.49360657 288.26183472 266.49360657 195.86183472 266.49360657 100.66183472 C241.74360657 100.33183472 216.99360657 100.00183472 191.49360657 99.66183472 C190.50360657 99.33183472 189.51360657 99.00183472 188.49360657 98.66183472 C180.26898229 73.9879619 186.84035635 46.66806876 186.49360657 20.66183472 C127.09360657 20.66183472 67.69360657 20.66183472 6.49360657 20.66183472 Z M206.49360657 36.66183472 C206.49360657 51.18183472 206.49360657 65.70183472 206.49360657 80.66183472 C221.01360657 80.66183472 235.53360657 80.66183472 250.49360657 80.66183472 C245.58716184 74.91463257 245.58716184 74.91463257 240.43183899 69.47067261 C239.32620857 68.36031395 239.32620857 68.36031395 238.19824219 67.2275238 C237.42301712 66.45432297 236.64779205 65.68112213 235.84907532 64.88449097 C235.03868301 64.07314194 234.22829071 63.26179291 233.39334106 62.42585754 C231.692721 60.7245607 229.99085236 59.02451112 228.28779602 57.32565308 C225.6683837 54.71163806 223.05440245 52.09227617 220.44087219 49.47238159 C218.78559416 47.81776361 217.13000635 46.16345544 215.47407532 44.50949097 C214.29605598 43.32843529 214.29605598 43.32843529 213.09423828 42.1235199 C212.37291214 41.40534592 211.651586 40.68717194 210.90840149 39.94723511 C210.2714183 39.31104752 209.63443512 38.67485992 208.97814941 38.01939392 C207.7058917 36.54936132 207.7058917 36.54936132 206.49360657 36.66183472 Z M-56.50639343 203.66183472 C-59.68490821 208.86811089 -59.93288283 213.48503405 -59.86715698 219.47602844 C-59.86972504 220.33748474 -59.87229309 221.19894104 -59.87493896 222.08650208 C-59.87988677 224.96914554 -59.86336374 227.85126088 -59.8469696 230.7338562 C-59.84605023 232.83729314 -59.8464517 234.940731 -59.84806538 237.04416752 C-59.84874194 242.67102642 -59.83136939 248.29769346 -59.81023407 253.92450714 C-59.79313426 259.2067881 -59.7923439 264.48902267 -59.79020691 269.77133179 C-59.77447235 285.21402479 -59.73258881 300.65668218 -59.69389343 316.09933472 C-59.63201843 350.60495972 -59.57014343 385.11058472 -59.50639343 420.66183472 C69.85360657 420.66183472 199.21360657 420.66183472 332.49360657 420.66183472 C332.55548157 386.15620972 332.61735657 351.65058472 332.68110657 316.09933472 C332.70841858 305.19958618 332.73573059 294.29983765 332.76387024 283.0697937 C332.77390285 273.30887746 332.77390285 273.30887746 332.77993774 263.54795837 C332.78273541 259.19655275 332.7939887 254.84525667 332.81033325 250.49388123 C332.83090415 244.94384806 332.83708119 239.39397427 332.8328234 233.84390652 C332.83371378 231.80678196 332.83966644 229.76965185 332.85125196 227.73256004 C332.86617865 224.98018134 332.86257517 222.22842142 332.85437012 219.47602844 C332.86310811 218.67954926 332.8718461 217.88307009 332.88084888 217.06245518 C332.83932964 211.87877995 332.22441275 208.13478267 329.49360657 203.66183472 C324.34311131 200.52638647 319.77037782 200.24860682 313.93501282 200.36886597 C312.75128334 200.37523323 312.75128334 200.37523323 311.54364014 200.38172913 C309.04743395 200.3983902 306.55206464 200.43601693 304.05610657 200.47433472 C302.35364435 200.48939789 300.65116935 200.50308342 298.94868469 200.51535034 C294.79667437 200.54825222 290.64528187 200.59994521 286.49360657 200.66183472 C286.48937463 201.66404714 286.48514269 202.66625956 286.48078251 203.69884205 C286.37769193 228.05956426 286.26895683 252.42025626 286.15426731 276.7809267 C286.0989362 288.56145032 286.04545437 300.34197697 285.99629211 312.12252808 C285.95344893 322.38775195 285.90717057 332.65295353 285.85672802 342.91814297 C285.83012819 348.3559014 285.80527511 353.79365541 285.78453255 359.23143959 C285.76496977 364.34572988 285.74082701 369.45997776 285.71311569 374.57423019 C285.70374337 376.45481662 285.69606874 378.33541237 285.69018745 380.21601295 C285.68192939 382.7767611 285.6676535 385.33740619 285.65182495 387.89811707 C285.65084684 388.64811346 285.64986874 389.39810985 285.64886099 390.17083341 C285.62408121 393.27251452 285.48229974 395.69575519 284.49360657 398.66183472 C281.55198417 399.64237552 279.66802897 399.78710937 276.60380554 399.78767586 C275.58949778 399.7902836 274.57519001 399.79289135 273.53014565 399.79557812 C272.41255552 399.7933474 271.2949654 399.79111668 270.14350891 399.78881836 C268.95883215 399.79037835 267.77415539 399.79193834 266.55357933 399.7935456 C263.25967277 399.79685163 259.96582297 399.79565154 256.67191982 399.79255939 C253.12177774 399.79030254 249.57164072 399.79378633 246.02149963 399.79653931 C239.06455315 399.80099292 232.10761744 399.80002234 225.15067053 399.79712667 C219.49811559 399.79487104 213.84556368 399.79456081 208.19300842 399.79565048 C206.98763524 399.79588033 206.98763524 399.79588033 205.75791109 399.79611482 C204.12560288 399.79643454 202.49329468 399.79675875 200.86098647 399.79708742 C185.54403049 399.79994101 170.22708049 399.79665707 154.91012549 399.79128705 C141.75891307 399.78681912 128.60770946 399.78759509 115.45649719 399.79220581 C100.19546933 399.79755369 84.93444671 399.79966633 69.67341805 399.79659355 C68.0470136 399.79627499 66.42060916 399.79596062 64.79420471 399.79565048 C63.99391983 399.79549621 63.19363496 399.79534193 62.36909902 399.79518298 C56.72137093 399.79431847 51.07364616 399.79577929 45.42591858 399.79813004 C38.54605203 399.8009306 31.66619689 399.80018433 24.78633165 399.79484929 C21.27412061 399.79221576 17.76192862 399.79120136 14.24971771 399.79449844 C10.44770237 399.79801368 6.64571843 399.79382488 2.84370422 399.78881836 C1.7261141 399.79104908 0.60852398 399.7932798 -0.54293251 399.79557812 C-2.06439416 399.7916665 -2.06439416 399.7916665 -3.61659241 399.78767586 C-4.49477819 399.78751351 -5.37296398 399.78735115 -6.27776146 399.78718388 C-8.50639343 399.66183472 -8.50639343 399.66183472 -11.50639343 398.66183472 C-12.71869838 395.02491986 -12.65967314 391.68501638 -12.66461182 387.89811707 C-12.66954979 387.09926108 -12.67448777 386.3004051 -12.67957538 385.47734135 C-12.69497308 382.79185234 -12.70331716 380.10638728 -12.7117157 377.42086792 C-12.72129244 375.49926542 -12.7313024 373.57766505 -12.74171448 371.65606689 C-12.76879173 366.43121808 -12.78978603 361.2063602 -12.80971646 355.98147988 C-12.83155862 350.52418119 -12.85895596 345.06691051 -12.88577271 339.6096344 C-12.93572356 329.27182877 -12.98065351 318.9340076 -13.02379507 308.59617156 C-13.07314701 296.82847183 -13.12807271 285.06080021 -13.18347466 273.29312766 C-13.29733143 249.08272289 -13.40416243 224.87229117 -13.50639343 200.66183472 C-18.50514008 200.58731781 -23.50355876 200.53306035 -28.50273132 200.49703979 C-30.20103086 200.48201346 -31.89929198 200.46158649 -33.59745789 200.43551636 C-36.04766862 200.39886023 -38.49736344 200.38204683 -40.94779968 200.36886597 C-41.69912674 200.35338211 -42.4504538 200.33789825 -43.22454834 200.32194519 C-48.25558348 200.32036234 -52.1033207 200.98139216 -56.50639343 203.66183472 Z " fill="#ffffff" transform="translate(119.50639343261719,15.338165283203125)"/>
<path d="M0 0 C1.26066284 -0.0087616 2.52132568 -0.01752319 3.82019043 -0.02655029 C7.27077865 -0.04930879 10.72061787 -0.04052246 14.17121887 -0.02465487 C17.78571561 -0.01197757 21.40014912 -0.02374103 25.01464844 -0.03158569 C31.08410126 -0.04067701 37.15324967 -0.02870826 43.22265625 -0.00488281 C50.23532888 0.02232789 57.24727464 0.01351333 64.25992966 -0.01401484 C70.28559965 -0.03671999 76.31105108 -0.03989926 82.33675003 -0.02682149 C85.93356487 -0.01903454 89.53003828 -0.01796408 93.12683105 -0.03450394 C97.13707377 -0.0516576 101.14606761 -0.02787074 105.15625 0 C106.3460144 -0.01012115 107.53577881 -0.02024231 108.76159668 -0.03067017 C117.71451681 0.08476627 117.71451681 0.08476627 120.81298828 3.03115845 C122.71953019 5.85652566 123.25589716 7.26955416 123.203125 10.64697266 C123.21601563 11.47197266 123.22890625 12.29697266 123.2421875 13.14697266 C122.51117578 15.89901678 121.49692719 17.61241707 119.4291687 19.57868576 C115.19445485 22.02265254 109.89971922 21.33429732 105.15625 21.29394531 C103.26525574 21.30708771 103.26525574 21.30708771 101.33605957 21.32049561 C97.88547135 21.3432541 94.43563213 21.33446777 90.98503113 21.31860018 C87.37053439 21.30592288 83.75610088 21.31768635 80.14160156 21.32553101 C74.07214874 21.33462232 68.00300033 21.32265357 61.93359375 21.29882812 C54.92092112 21.27161743 47.90897536 21.28043199 40.89632034 21.30796015 C34.87065035 21.3306653 28.84519892 21.33384457 22.81949997 21.32076681 C19.22268513 21.31297985 15.62621172 21.31190939 12.02941895 21.32844925 C8.01917623 21.34560291 4.01018239 21.32181605 0 21.29394531 C-1.1897644 21.30406647 -2.37952881 21.31418762 -3.60534668 21.32461548 C-12.55826681 21.20917904 -12.55826681 21.20917904 -15.65673828 18.26278687 C-17.56328019 15.43741965 -18.09964716 14.02439115 -18.046875 10.64697266 C-18.05976563 9.82197266 -18.07265625 8.99697266 -18.0859375 8.14697266 C-17.35492578 5.39492853 -16.34067719 3.68152824 -14.2729187 1.71525955 C-10.03820485 -0.72870723 -4.74346922 -0.04035201 0 0 Z " fill="#ffffff" transform="translate(243.421875,315.35302734375)"/>
<path d="M0 0 C1.26066284 -0.0087616 2.52132568 -0.01752319 3.82019043 -0.02655029 C7.27077865 -0.04930879 10.72061787 -0.04052246 14.17121887 -0.02465487 C17.78571561 -0.01197757 21.40014912 -0.02374103 25.01464844 -0.03158569 C31.08410126 -0.04067701 37.15324967 -0.02870826 43.22265625 -0.00488281 C50.23532888 0.02232789 57.24727464 0.01351333 64.25992966 -0.01401484 C70.28559965 -0.03671999 76.31105108 -0.03989926 82.33675003 -0.02682149 C85.93356487 -0.01903454 89.53003828 -0.01796408 93.12683105 -0.03450394 C97.13707377 -0.0516576 101.14606761 -0.02787074 105.15625 0 C106.3460144 -0.01012115 107.53577881 -0.02024231 108.76159668 -0.03067017 C117.71451681 0.08476627 117.71451681 0.08476627 120.81298828 3.03115845 C122.71953019 5.85652566 123.25589716 7.26955416 123.203125 10.64697266 C123.21601563 11.47197266 123.22890625 12.29697266 123.2421875 13.14697266 C122.51117578 15.89901678 121.49692719 17.61241707 119.4291687 19.57868576 C115.19445485 22.02265254 109.89971922 21.33429732 105.15625 21.29394531 C103.26525574 21.30708771 103.26525574 21.30708771 101.33605957 21.32049561 C97.88547135 21.3432541 94.43563213 21.33446777 90.98503113 21.31860018 C87.37053439 21.30592288 83.75610088 21.31768635 80.14160156 21.32553101 C74.07214874 21.33462232 68.00300033 21.32265357 61.93359375 21.29882812 C54.92092112 21.27161743 47.90897536 21.28043199 40.89632034 21.30796015 C34.87065035 21.3306653 28.84519892 21.33384457 22.81949997 21.32076681 C19.22268513 21.31297985 15.62621172 21.31190939 12.02941895 21.32844925 C8.01917623 21.34560291 4.01018239 21.32181605 0 21.29394531 C-1.1897644 21.30406647 -2.37952881 21.31418762 -3.60534668 21.32461548 C-12.55826681 21.20917904 -12.55826681 21.20917904 -15.65673828 18.26278687 C-17.56328019 15.43741965 -18.09964716 14.02439115 -18.046875 10.64697266 C-18.05976563 9.82197266 -18.07265625 8.99697266 -18.0859375 8.14697266 C-17.35492578 5.39492853 -16.34067719 3.68152824 -14.2729187 1.71525955 C-10.03820485 -0.72870723 -4.74346922 -0.04035201 0 0 Z " fill="#ffffff" transform="translate(243.421875,255.35302734375)"/>
<path d="M0 0 C1.26066284 -0.0087616 2.52132568 -0.01752319 3.82019043 -0.02655029 C7.27077865 -0.04930879 10.72061787 -0.04052246 14.17121887 -0.02465487 C17.78571561 -0.01197757 21.40014912 -0.02374103 25.01464844 -0.03158569 C31.08410126 -0.04067701 37.15324967 -0.02870826 43.22265625 -0.00488281 C50.23532888 0.02232789 57.24727464 0.01351333 64.25992966 -0.01401484 C70.28559965 -0.03671999 76.31105108 -0.03989926 82.33675003 -0.02682149 C85.93356487 -0.01903454 89.53003828 -0.01796408 93.12683105 -0.03450394 C97.13707377 -0.0516576 101.14606761 -0.02787074 105.15625 0 C106.3460144 -0.01012115 107.53577881 -0.02024231 108.76159668 -0.03067017 C117.71451681 0.08476627 117.71451681 0.08476627 120.81298828 3.03115845 C122.71953019 5.85652566 123.25589716 7.26955416 123.203125 10.64697266 C123.21601563 11.47197266 123.22890625 12.29697266 123.2421875 13.14697266 C122.51117578 15.89901678 121.49692719 17.61241707 119.4291687 19.57868576 C115.19445485 22.02265254 109.89971922 21.33429732 105.15625 21.29394531 C103.26525574 21.30708771 103.26525574 21.30708771 101.33605957 21.32049561 C97.88547135 21.3432541 94.43563213 21.33446777 90.98503113 21.31860018 C87.37053439 21.30592288 83.75610088 21.31768635 80.14160156 21.32553101 C74.07214874 21.33462232 68.00300033 21.32265357 61.93359375 21.29882812 C54.92092112 21.27161743 47.90897536 21.28043199 40.89632034 21.30796015 C34.87065035 21.3306653 28.84519892 21.33384457 22.81949997 21.32076681 C19.22268513 21.31297985 15.62621172 21.31190939 12.02941895 21.32844925 C8.01917623 21.34560291 4.01018239 21.32181605 0 21.29394531 C-1.1897644 21.30406647 -2.37952881 21.31418762 -3.60534668 21.32461548 C-12.55826681 21.20917904 -12.55826681 21.20917904 -15.65673828 18.26278687 C-17.56328019 15.43741965 -18.09964716 14.02439115 -18.046875 10.64697266 C-18.05976563 9.82197266 -18.07265625 8.99697266 -18.0859375 8.14697266 C-17.35492578 5.39492853 -16.34067719 3.68152824 -14.2729187 1.71525955 C-10.03820485 -0.72870723 -4.74346922 -0.04035201 0 0 Z " fill="#ffffff" transform="translate(243.421875,195.35302734375)"/>
<path d="M0 0 C1.26066284 -0.0087616 2.52132568 -0.01752319 3.82019043 -0.02655029 C7.27077865 -0.04930879 10.72061787 -0.04052246 14.17121887 -0.02465487 C17.78571561 -0.01197757 21.40014912 -0.02374103 25.01464844 -0.03158569 C31.08410126 -0.04067701 37.15324967 -0.02870826 43.22265625 -0.00488281 C50.23532888 0.02232789 57.24727464 0.01351333 64.25992966 -0.01401484 C70.28559965 -0.03671999 76.31105108 -0.03989926 82.33675003 -0.02682149 C85.93356487 -0.01903454 89.53003828 -0.01796408 93.12683105 -0.03450394 C97.13707377 -0.0516576 101.14606761 -0.02787074 105.15625 0 C106.3460144 -0.01012115 107.53577881 -0.02024231 108.76159668 -0.03067017 C117.71451681 0.08476627 117.71451681 0.08476627 120.81298828 3.03115845 C122.71953019 5.85652566 123.25589716 7.26955416 123.203125 10.64697266 C123.21601563 11.47197266 123.22890625 12.29697266 123.2421875 13.14697266 C122.51117578 15.89901678 121.49692719 17.61241707 119.4291687 19.57868576 C115.19445485 22.02265254 109.89971922 21.33429732 105.15625 21.29394531 C103.26525574 21.30708771 103.26525574 21.30708771 101.33605957 21.32049561 C97.88547135 21.3432541 94.43563213 21.33446777 90.98503113 21.31860018 C87.37053439 21.30592288 83.75610088 21.31768635 80.14160156 21.32553101 C74.07214874 21.33462232 68.00300033 21.32265357 61.93359375 21.29882812 C54.92092112 21.27161743 47.90897536 21.28043199 40.89632034 21.30796015 C34.87065035 21.3306653 28.84519892 21.33384457 22.81949997 21.32076681 C19.22268513 21.31297985 15.62621172 21.31190939 12.02941895 21.32844925 C8.01917623 21.34560291 4.01018239 21.32181605 0 21.29394531 C-1.1897644 21.30406647 -2.37952881 21.31418762 -3.60534668 21.32461548 C-12.55826681 21.20917904 -12.55826681 21.20917904 -15.65673828 18.26278687 C-17.56328019 15.43741965 -18.09964716 14.02439115 -18.046875 10.64697266 C-18.05976563 9.82197266 -18.07265625 8.99697266 -18.0859375 8.14697266 C-17.35492578 5.39492853 -16.34067719 3.68152824 -14.2729187 1.71525955 C-10.03820485 -0.72870723 -4.74346922 -0.04035201 0 0 Z " fill="#ffffff" transform="translate(243.421875,135.35302734375)"/>
<path d="M0 0 C3.36337088 2.01802253 4.56537386 3.42587329 5.609375 7.20703125 C6.0245192 11.08374546 5.74460213 13.94043782 3.46875 17.17895508 C2.7778125 17.91009521 2.086875 18.64123535 1.375 19.39453125 C0.56015137 20.26053955 -0.25469727 21.12654785 -1.09423828 22.01879883 C-2.06069777 23.01460203 -3.02944611 24.00818696 -4 25 C-4.81908844 25.8399501 -4.81908844 25.8399501 -5.65472412 26.6968689 C-9.37786236 30.50307301 -13.13329156 34.27593069 -16.90429688 38.03466797 C-18.8957176 40.02066113 -20.88165001 42.01203297 -22.8671875 44.00390625 C-24.13769977 45.27375881 -25.40852163 46.54330172 -26.6796875 47.8125 C-27.27030975 48.40514648 -27.86093201 48.99779297 -28.4694519 49.60839844 C-35.19966958 56.30013665 -35.19966958 56.30013665 -40.5625 56.6875 C-46.57315867 56.56519009 -49.4227246 53.7022754 -53.53515625 49.58984375 C-54.34855469 48.73519531 -55.16195312 47.88054687 -56 47 C-57.66618979 45.37451103 -59.33283342 43.74948711 -61 42.125 C-64.83813452 38.3005731 -67.29346285 35.70008509 -67.4375 30.125 C-67.33561505 26.45714165 -67.06821397 25.11368995 -65.125 21.875 C-61.42586345 19.65551807 -58.99826345 19.05909045 -54.71484375 19.2265625 C-49.34059537 20.75764333 -45.72246057 25.00825505 -42 29 C-37.93239934 27.38724689 -35.240562 24.47870846 -32.24609375 21.40625 C-31.70396744 20.85892212 -31.16184113 20.31159424 -30.60328674 19.74768066 C-28.87652343 18.00315061 -27.15660855 16.25207116 -25.4375 14.5 C-23.71396727 12.74881187 -21.98898317 10.99911801 -20.26100159 9.25231934 C-19.18751563 8.16661754 -18.11671423 7.07825321 -17.04893494 5.98693848 C-11.5133702 0.37719714 -7.79225405 -1.15394845 0 0 Z " fill="#ffffff" transform="translate(217,280)"/>
<path d="M0 0 C3.36337088 2.01802253 4.56537386 3.42587329 5.609375 7.20703125 C6.0245192 11.08374546 5.74460213 13.94043782 3.46875 17.17895508 C2.7778125 17.91009521 2.086875 18.64123535 1.375 19.39453125 C0.56015137 20.26053955 -0.25469727 21.12654785 -1.09423828 22.01879883 C-2.06069777 23.01460203 -3.02944611 24.00818696 -4 25 C-4.81908844 25.8399501 -4.81908844 25.8399501 -5.65472412 26.6968689 C-9.37786236 30.50307301 -13.13329156 34.27593069 -16.90429688 38.03466797 C-18.8957176 40.02066113 -20.88165001 42.01203297 -22.8671875 44.00390625 C-24.13769977 45.27375881 -25.40852163 46.54330172 -26.6796875 47.8125 C-27.27030975 48.40514648 -27.86093201 48.99779297 -28.4694519 49.60839844 C-35.19966958 56.30013665 -35.19966958 56.30013665 -40.5625 56.6875 C-46.57315867 56.56519009 -49.4227246 53.7022754 -53.53515625 49.58984375 C-54.34855469 48.73519531 -55.16195312 47.88054687 -56 47 C-57.66618979 45.37451103 -59.33283342 43.74948711 -61 42.125 C-64.83813452 38.3005731 -67.29346285 35.70008509 -67.4375 30.125 C-67.33561505 26.45714165 -67.06821397 25.11368995 -65.125 21.875 C-61.42586345 19.65551807 -58.99826345 19.05909045 -54.71484375 19.2265625 C-49.34059537 20.75764333 -45.72246057 25.00825505 -42 29 C-37.93239934 27.38724689 -35.240562 24.47870846 -32.24609375 21.40625 C-31.70396744 20.85892212 -31.16184113 20.31159424 -30.60328674 19.74768066 C-28.87652343 18.00315061 -27.15660855 16.25207116 -25.4375 14.5 C-23.71396727 12.74881187 -21.98898317 10.99911801 -20.26100159 9.25231934 C-19.18751563 8.16661754 -18.11671423 7.07825321 -17.04893494 5.98693848 C-11.5133702 0.37719714 -7.79225405 -1.15394845 0 0 Z " fill="#ffffff" transform="translate(217,220)"/>
<path d="M0 0 C3.36337088 2.01802253 4.56537386 3.42587329 5.609375 7.20703125 C6.0245192 11.08374546 5.74460213 13.94043782 3.46875 17.17895508 C2.7778125 17.91009521 2.086875 18.64123535 1.375 19.39453125 C0.56015137 20.26053955 -0.25469727 21.12654785 -1.09423828 22.01879883 C-2.06069777 23.01460203 -3.02944611 24.00818696 -4 25 C-4.81908844 25.8399501 -4.81908844 25.8399501 -5.65472412 26.6968689 C-9.37786236 30.50307301 -13.13329156 34.27593069 -16.90429688 38.03466797 C-18.8957176 40.02066113 -20.88165001 42.01203297 -22.8671875 44.00390625 C-24.13769977 45.27375881 -25.40852163 46.54330172 -26.6796875 47.8125 C-27.27030975 48.40514648 -27.86093201 48.99779297 -28.4694519 49.60839844 C-35.19966958 56.30013665 -35.19966958 56.30013665 -40.5625 56.6875 C-46.57315867 56.56519009 -49.4227246 53.7022754 -53.53515625 49.58984375 C-54.34855469 48.73519531 -55.16195312 47.88054687 -56 47 C-57.66618979 45.37451103 -59.33283342 43.74948711 -61 42.125 C-64.83813452 38.3005731 -67.29346285 35.70008509 -67.4375 30.125 C-67.33561505 26.45714165 -67.06821397 25.11368995 -65.125 21.875 C-61.42586345 19.65551807 -58.99826345 19.05909045 -54.71484375 19.2265625 C-49.34059537 20.75764333 -45.72246057 25.00825505 -42 29 C-37.93239934 27.38724689 -35.240562 24.47870846 -32.24609375 21.40625 C-31.70396744 20.85892212 -31.16184113 20.31159424 -30.60328674 19.74768066 C-28.87652343 18.00315061 -27.15660855 16.25207116 -25.4375 14.5 C-23.71396727 12.74881187 -21.98898317 10.99911801 -20.26100159 9.25231934 C-19.18751563 8.16661754 -18.11671423 7.07825321 -17.04893494 5.98693848 C-11.5133702 0.37719714 -7.79225405 -1.15394845 0 0 Z " fill="#ffffff" transform="translate(217,160)"/>
<path d="M0 0 C3.36337088 2.01802253 4.56537386 3.42587329 5.609375 7.20703125 C6.0245192 11.08374546 5.74460213 13.94043782 3.46875 17.17895508 C2.7778125 17.91009521 2.086875 18.64123535 1.375 19.39453125 C0.56015137 20.26053955 -0.25469727 21.12654785 -1.09423828 22.01879883 C-2.06069777 23.01460203 -3.02944611 24.00818696 -4 25 C-4.81908844 25.8399501 -4.81908844 25.8399501 -5.65472412 26.6968689 C-9.37786236 30.50307301 -13.13329156 34.27593069 -16.90429688 38.03466797 C-18.8957176 40.02066113 -20.88165001 42.01203297 -22.8671875 44.00390625 C-24.13769977 45.27375881 -25.40852163 46.54330172 -26.6796875 47.8125 C-27.27030975 48.40514648 -27.86093201 48.99779297 -28.4694519 49.60839844 C-35.19966958 56.30013665 -35.19966958 56.30013665 -40.5625 56.6875 C-46.57315867 56.56519009 -49.4227246 53.7022754 -53.53515625 49.58984375 C-54.34855469 48.73519531 -55.16195312 47.88054687 -56 47 C-57.66618979 45.37451103 -59.33283342 43.74948711 -61 42.125 C-64.83813452 38.3005731 -67.29346285 35.70008509 -67.4375 30.125 C-67.33561505 26.45714165 -67.06821397 25.11368995 -65.125 21.875 C-61.42586345 19.65551807 -58.99826345 19.05909045 -54.71484375 19.2265625 C-49.34059537 20.75764333 -45.72246057 25.00825505 -42 29 C-37.93239934 27.38724689 -35.240562 24.47870846 -32.24609375 21.40625 C-31.70396744 20.85892212 -31.16184113 20.31159424 -30.60328674 19.74768066 C-28.87652343 18.00315061 -27.15660855 16.25207116 -25.4375 14.5 C-23.71396727 12.74881187 -21.98898317 10.99911801 -20.26100159 9.25231934 C-19.18751563 8.16661754 -18.11671423 7.07825321 -17.04893494 5.98693848 C-11.5133702 0.37719714 -7.79225405 -1.15394845 0 0 Z " fill="#ffffff" transform="translate(217,100)"/>
<path d="M0 0 C3.125 1.875 3.125 1.875 5 5 C5.98876625 10.02622846 5.7769173 13.70513784 3.125 18.125 C-1.29486216 20.7769173 -4.97377154 20.98876625 -10 20 C-13.125 18.125 -13.125 18.125 -15 15 C-15.98876625 9.97377154 -15.7769173 6.29486216 -13.125 1.875 C-8.70513784 -0.7769173 -5.02622846 -0.98876625 0 0 Z " fill="#ffffff" transform="translate(261,476)"/>
</svg>
