<?xml version="1.0" encoding="UTF-8"?>
<svg version="1.1" xmlns="http://www.w3.org/2000/svg" width="512" height="512">
<path d="M0 0 C5.52013044 3.08039076 8.60528998 6.87836995 10.625 12.9375 C10.73544645 15.91637589 10.78956473 18.87305659 10.79858398 21.85253906 C10.805271 22.76522552 10.81195801 23.67791199 10.81884766 24.61825562 C10.83290827 26.60383006 10.84479909 28.58942077 10.85479546 30.57501984 C10.87123327 33.72990196 10.89447903 36.88466628 10.91969299 40.03948975 C10.99034463 49.01129232 11.05020465 57.9831463 11.10180664 66.95507812 C11.13385569 72.44402595 11.17520752 77.93284334 11.22200203 83.42168427 C11.23788457 85.50257738 11.25026843 87.58350056 11.25890923 89.66443634 C11.34762485 110.7475588 12.0065689 129.63264795 25.625 146.9375 C26.2334375 147.7625 26.841875 148.5875 27.46875 149.4375 C37.91915834 161.55391546 54.15881876 166.78061121 69.625 167.9375 C78.21376906 168.30001071 86.81573625 168.21138338 95.41015625 168.19628906 C98.01016335 168.19900269 100.61016968 168.20256571 103.21017456 168.20690918 C109.51091325 168.21575503 115.81160402 168.21390277 122.1123445 168.2080839 C127.23775227 168.20354835 132.3631467 168.20296265 137.48855591 168.20513153 C138.22086302 168.205438 138.95317013 168.20574446 139.70766836 168.20606022 C141.19580865 168.20669973 142.68394894 168.20734816 144.17208922 168.2080054 C158.09309233 168.21369461 172.014069 168.20717299 185.93506777 168.19640467 C197.85353497 168.18747044 209.77196319 168.18902288 221.69042969 168.19824219 C235.5650862 168.2089698 249.43971961 168.21314542 263.31437969 168.20701766 C264.79673449 168.20638063 266.27908929 168.20575189 267.76144409 168.20513153 C268.49059763 168.20482298 269.21975116 168.20451443 269.97100025 168.20419653 C275.08419832 168.20247705 280.19738161 168.20536849 285.31057739 168.21009064 C292.20535072 168.21631876 299.10004965 168.21182026 305.99481583 168.20030212 C308.51743575 168.19766926 311.04006189 168.198397 313.56267929 168.20282745 C335.34033443 168.23753406 354.74063814 168.011989 372.625 153.9375 C373.45 153.3290625 374.275 152.720625 375.125 152.09375 C387.65978735 141.28249591 392.40170237 124.85043442 393.625 108.9375 C393.92302399 102.54763034 393.92387942 96.15175972 393.92996025 89.75613213 C393.93367451 86.61529904 393.95053057 83.4747677 393.97071838 80.33399963 C394.02569447 71.41665235 394.05693282 62.49926539 394.08129883 53.58178711 C394.09717338 48.09846414 394.12736897 42.61536517 394.16606331 37.13215828 C394.17769017 35.05219967 394.18364346 32.97220111 394.18374443 30.89221001 C394.18393655 27.99227247 394.20220158 25.09295617 394.22436523 22.19311523 C394.21978806 21.34058167 394.21521088 20.4880481 394.210495 19.60968018 C394.28695288 13.31471424 395.707956 9.2379528 399.8125 4.3125 C405.83129451 -0.77003758 410.99114959 -2.7826236 418.94921875 -2.44140625 C425.79496991 -1.47200791 430.06290611 1.83900149 434.3984375 7.05859375 C438.00765521 12.58736355 437.91623544 17.66709336 437.8996582 24.07348633 C437.9073246 25.60147858 437.9073246 25.60147858 437.91514587 27.16033936 C437.92904936 30.53012976 437.92808305 33.89971554 437.92578125 37.26953125 C437.92967067 39.62302221 437.93400584 41.97651247 437.93876648 44.33000183 C437.94623246 49.27039865 437.94593677 54.21072405 437.94067383 59.15112305 C437.93490987 65.44394943 437.95173379 71.73647853 437.9750185 78.02925587 C437.98985172 82.89641496 437.99061404 87.76350429 437.98750877 92.63068199 C437.98801821 94.94802115 437.99318409 97.26536461 438.00332069 99.58268166 C438.12260977 130.69584437 431.08085426 155.90754442 410.625 179.9375 C410.05265625 180.61425781 409.4803125 181.29101562 408.890625 181.98828125 C392.61182776 199.56770404 367.33731708 210.63500363 343.64679003 212.12478507 C340.54830648 212.19532228 337.45528381 212.20909513 334.35601807 212.19819641 C333.18099094 212.20202196 332.00596382 212.20584751 330.79532981 212.20978898 C327.56963057 212.21825644 324.34407904 212.21791065 321.11837626 212.21360838 C317.62539408 212.21112443 314.13243779 212.22017594 310.63946533 212.22764587 C303.80972744 212.2403494 296.98002894 212.24219197 290.15028122 212.23984561 C284.59387354 212.23805721 279.03747774 212.23982326 273.48107147 212.24407005 C272.68801288 212.24466524 271.89495429 212.24526043 271.07786362 212.24587366 C269.46635773 212.24708551 267.85485184 212.24829964 266.24334595 212.24951603 C251.15390642 212.26037509 236.06448928 212.25823699 220.97504851 212.25213119 C207.19995779 212.24696498 193.42493785 212.25821256 179.64986113 212.27722941 C165.47452173 212.29664739 151.29921575 212.30485678 137.12386298 212.30110615 C129.1779928 212.29919992 121.23218282 212.30162497 113.28632355 212.31582069 C106.52083837 212.32778618 99.75545044 212.32908198 92.9899638 212.31703053 C89.54488172 212.31117749 86.09997706 212.3099419 82.65490723 212.32203293 C50.38746189 212.41268496 24.65515646 206.24479002 -0.375 184.9375 C-1.05175781 184.36515625 -1.72851562 183.7928125 -2.42578125 183.203125 C-16.43252054 170.23268385 -26.11816843 151.37674568 -30.375 132.9375 C-30.62385956 131.8957235 -30.62385956 131.8957235 -30.87774658 130.832901 C-33.16291381 119.56967504 -32.70360258 108.08039853 -32.7109375 96.640625 C-32.71737335 94.27797364 -32.72410228 91.91532307 -32.73110962 89.55267334 C-32.74303521 84.62054596 -32.74679488 79.68848842 -32.74560547 74.75634766 C-32.74540156 68.44605012 -32.77279955 62.13619927 -32.80714989 55.82600784 C-32.82940383 50.9548945 -32.8334436 46.08388938 -32.83238602 41.21273041 C-32.83474053 38.88597817 -32.84355557 36.55922289 -32.85905075 34.23252106 C-32.87869693 30.98054126 -32.87287937 27.72953531 -32.86083984 24.47753906 C-32.87207886 23.52462479 -32.88331787 22.57171051 -32.89489746 21.58992004 C-32.8291906 14.58788034 -31.25150968 9.27090495 -26.62890625 3.9140625 C-26.07074219 3.46804688 -25.51257813 3.02203125 -24.9375 2.5625 C-24.38191406 2.10101563 -23.82632812 1.63953125 -23.25390625 1.1640625 C-16.04505584 -3.54192301 -7.71848698 -3.50735432 0 0 Z " fill="#ffffff" transform="translate(53.375,279.0625)"/>
<path d="M0 0 C1.423125 -0.01546875 1.423125 -0.01546875 2.875 -0.03125 C9.83814212 1.15248416 15.07475385 4.97758166 19.95307922 9.95187378 C20.49682684 10.490087 21.04057445 11.02830021 21.60079926 11.58282292 C23.40271259 13.37122859 25.19011007 15.17344296 26.9777832 16.97607422 C28.27373779 18.26824212 29.57054948 19.5595509 30.8681488 20.85006714 C34.37705543 24.3450498 37.87331832 27.85242971 41.366997 31.36262655 C45.02948179 35.03899242 48.70214717 38.70516382 52.37333679 42.37283325 C58.53432108 48.53111836 64.68718227 54.69742898 70.83520508 60.86865234 C77.94002698 68.00009973 85.05721785 75.11901517 92.18122989 82.23128879 C99.04076498 89.08004108 105.89178177 95.93725281 112.73885155 102.79846573 C115.65034379 105.71571158 118.56472703 108.63002326 121.48147011 111.54201889 C124.91524035 114.97101316 128.3414665 118.40737325 131.76203346 121.8495369 C133.01757941 123.11064171 134.27567208 124.36921697 135.53649521 125.62504578 C137.25865352 127.34123684 138.97128307 129.06641428 140.68183899 130.79415894 C141.43095353 131.53425841 141.43095353 131.53425841 142.19520169 132.28930938 C147.03443302 137.21716612 149.51036057 142.24518365 150.0625 149.06640625 C149.91633401 154.75774455 148.22345293 160.28466673 144.8125 164.875 C138.67048431 170.60754798 133.47844215 171.94045172 125.125 172.03125 C116.24974918 170.52245736 110.80570851 164.86594128 104.73828125 158.69238281 C103.84953812 157.80422379 102.96079498 156.91606476 102.04512024 156.00099182 C99.6271438 153.58071749 97.2183484 151.15195739 94.81330109 148.71887684 C92.29144692 146.17190035 89.75814714 143.63635873 87.22607422 141.09954834 C82.44064857 136.30172461 77.66550514 131.49380268 72.89403152 126.68210769 C67.45813461 121.20139416 62.01078131 115.7321279 56.56246758 110.263762 C45.3622424 99.02180432 34.17638764 87.76565952 23 76.5 C22.99910437 77.35184149 22.99910437 77.35184149 22.99819064 78.22089189 C22.96228461 111.89053239 22.9056271 145.56006937 22.82207905 179.22962501 C22.81206178 183.27376983 22.80221762 187.31791505 22.79248047 191.36206055 C22.78956841 192.56971834 22.78956841 192.56971834 22.78659752 193.80177326 C22.75558954 206.83220639 22.73860023 219.86262192 22.72680578 232.893085 C22.71438799 246.2668754 22.68687241 259.64057352 22.64538693 273.01430565 C22.62026948 281.26441548 22.60688144 289.51437222 22.60857043 297.76452083 C22.60860022 303.42452979 22.59394436 309.08438299 22.56783572 314.74433123 C22.5532103 318.00826662 22.54714824 321.27181912 22.55419731 324.53578949 C22.56083189 328.0800222 22.54292745 331.623326 22.51898193 335.16746521 C22.52674235 336.19180568 22.53450277 337.21614614 22.54249835 338.27152723 C22.45677949 345.44824014 21.3069903 351.99925448 16.22077727 357.38346666 C9.90234551 363.08964012 4.99607485 364.0114264 -3.51171875 363.87890625 C-9.86513022 363.18878205 -13.66524406 360.16047551 -17.875 355.5625 C-22.34311825 349.12315311 -22.29265475 343.10083005 -22.2784729 335.52822876 C-22.2842653 334.42054307 -22.2900577 333.31285739 -22.29602563 332.17160547 C-22.3130346 328.45893797 -22.31590296 324.74639472 -22.31884766 321.03369141 C-22.32814521 318.3727345 -22.3382265 315.71179133 -22.34928894 313.05084229 C-22.37154504 307.3214737 -22.38656823 301.59212293 -22.39665604 295.86272049 C-22.41125172 287.57900937 -22.43679104 279.29536032 -22.46498732 271.01168565 C-22.51043914 257.5714462 -22.54706061 244.13119781 -22.578125 230.69091797 C-22.60831713 217.6362145 -22.64267046 204.58153289 -22.68261719 191.52685547 C-22.68507874 190.721943 -22.68754028 189.91703054 -22.69007643 189.08772679 C-22.70245116 185.04965114 -22.71490766 181.01157576 -22.72740483 176.97350049 C-22.83094853 143.48236339 -22.92015973 109.99120196 -23 76.5 C-23.46769082 76.97137799 -23.93538164 77.44275599 -24.41724491 77.92841816 C-35.80770712 89.40728966 -47.20926912 100.87500711 -58.62324619 112.33049488 C-64.14273691 117.87059439 -69.65843066 123.41437665 -75.1652832 128.96704102 C-79.96611185 133.80778886 -84.77397471 138.64141975 -89.59034866 143.46670264 C-92.13939743 146.02095752 -94.68483027 148.57859169 -97.2218647 151.14478493 C-100.05700393 154.01224213 -102.90773861 156.86369472 -105.76000977 159.71411133 C-107.01266129 160.9883345 -107.01266129 160.9883345 -108.2906189 162.28829956 C-114.28182893 168.23747493 -119.16195654 171.92572075 -127.9375 171.9375 C-134.50575819 171.73249818 -139.07553231 170.45057901 -143.75 165.734375 C-148.47089359 159.96943764 -150.34495714 154.42335969 -149.9375 147 C-148.14046863 136.29291091 -138.96198697 129.02823472 -131.62573242 121.72167969 C-130.35658986 120.44682812 -129.08807722 119.17134919 -127.82014465 117.89529419 C-124.38907775 114.44634213 -120.94857564 111.00695314 -117.50570083 107.56979275 C-114.62761927 104.69480892 -111.75415107 101.81523608 -108.88063604 98.93568921 C-102.10066565 92.14169124 -95.31294808 85.35550341 -88.52026367 78.57421875 C-81.52107732 71.58651957 -74.53477834 64.58612464 -67.55474204 57.57930064 C-61.551633 51.55402039 -55.54077848 45.53654571 -49.52364045 39.52527547 C-45.93417328 35.93917469 -42.34764647 32.35025644 -38.76848412 28.7538681 C-35.40309695 25.37299078 -32.02810652 22.00200039 -28.6455822 18.63827133 C-27.40861963 17.40498844 -26.17502836 16.16831314 -24.9451561 14.92795944 C-10.02559273 -0.10897383 -10.02559273 -0.10897383 0 0 Z " fill="#ffffff" transform="translate(256,20.5)"/>
</svg>
